<svg width="86" height="86" viewBox="0 0 86 86" fill="none" xmlns="http://www.w3.org/2000/svg">
<path d="M42.9747 0V11.7413C60.1522 11.7413 74.1244 25.7135 74.1244 42.891C74.1244 60.0685 60.1522 74.029 42.9747 74.029C40.4386 74.029 37.9729 73.7237 35.6129 73.1366L32.7715 84.5374C36.0473 85.3476 39.464 85.7703 42.9747 85.7703C66.6217 85.7703 85.8657 66.538 85.8657 42.891C85.8657 19.244 66.6217 0 42.9747 0Z" fill="#28566E"/>
<path d="M11.8248 42.891C11.8248 57.5207 21.981 69.8373 35.6127 73.1366L32.7713 84.5374C14.0322 79.9583 0.0834961 63.0273 0.0834961 42.891C0.0834961 19.244 19.3275 0 42.9745 0V11.7413C25.797 11.7413 11.8248 25.7135 11.8248 42.891Z" fill="#ABABAB"/>
</svg>
