<svg width="87" height="86" viewBox="0 0 87 86" fill="none" xmlns="http://www.w3.org/2000/svg">
<path d="M43.4015 0V11.7413C60.579 11.7413 74.5512 25.7135 74.5512 42.8793C74.5512 60.045 60.579 74.0289 43.4015 74.0289C37.343 74.0289 31.6836 72.2912 26.9049 69.2855L20.6938 79.2421C27.2807 83.375 35.0651 85.7702 43.4015 85.7702C67.0485 85.7702 86.2925 66.5262 86.2925 42.8793C86.2925 19.2323 67.0485 0 43.4015 0Z" fill="#28566E"/>
<path d="M12.2635 42.8792C12.2635 53.9983 18.1107 63.767 26.9049 69.2854L20.6938 79.2421C8.58852 71.6572 0.522217 58.1899 0.522217 42.8792C0.522217 19.2323 19.7545 0 43.4015 0V11.7413C26.2357 11.7413 12.2635 25.7135 12.2635 42.8792Z" fill="#ABABAB"/>
</svg>
