<svg width="87" height="86" viewBox="0 0 87 86" fill="none" xmlns="http://www.w3.org/2000/svg">
<path d="M43.8401 0V11.7413C61.0177 11.7413 74.9898 25.7135 74.9898 42.891C74.9898 60.0685 61.0177 74.0289 43.8401 74.0289C26.6626 74.0289 12.7022 60.0568 12.7022 42.891C12.7022 38.1945 13.7472 33.7328 15.6258 29.729L4.9764 24.7624C2.40506 30.2691 0.960876 36.4215 0.960876 42.891C0.960876 66.538 20.1931 85.7703 43.8401 85.7703C67.4871 85.7703 86.7311 66.538 86.7311 42.891C86.7311 19.244 67.4871 0 43.8401 0Z" fill="#28566E"/>
<path d="M43.8401 0V11.7413C31.3708 11.7413 20.5923 19.1148 15.6258 29.729L4.97638 24.7624C11.8216 10.1445 26.6626 0 43.8401 0Z" fill="#ABABAB"/>
</svg>
