<svg width="87" height="86" viewBox="0 0 87 86" fill="none" xmlns="http://www.w3.org/2000/svg">
<path d="M66.2672 6.52817L60.0443 16.4848C68.8385 21.9915 74.6975 31.7602 74.6975 42.8793C74.6975 60.0568 60.7253 74.029 43.5478 74.029C26.3702 74.029 12.398 60.0568 12.398 42.8793C12.398 25.7017 26.3702 11.7413 43.5478 11.7413V0C19.9008 0 0.656738 19.2323 0.656738 42.8793C0.656738 66.5263 19.9008 85.7703 43.5478 85.7703C67.1948 85.7703 86.4388 66.538 86.4388 42.8793C86.4388 27.5686 78.3725 14.1131 66.2672 6.52817Z" fill="#ABABAB"/>
<path d="M66.2673 6.52817L60.0444 16.4848C55.2657 13.479 49.6064 11.7413 43.5479 11.7413V0C51.8842 0 59.6804 2.39523 66.2673 6.52817Z" fill="#28566E"/>
</svg>
