<svg width="21" height="41" viewBox="0 0 21 41" fill="none" xmlns="http://www.w3.org/2000/svg">
<path d="M6.20561 40.3543V39.9812C6.20561 34.1037 6.20561 28.2263 6.20561 22.3488C6.20561 22.0877 6.07701 21.957 5.81981 21.9567C4.01537 21.9567 2.21093 21.9567 0.406483 21.9567C0.136316 21.9567 0.00123284 21.8176 0.00123284 21.5394C0.00123284 19.4285 0.000707224 17.3176 0.00123284 15.2062C0.00123284 14.7331 -0.0460727 14.7757 0.445379 14.7752C2.24982 14.7741 4.05426 14.7752 5.85871 14.7747C6.20456 14.7747 6.20404 14.7736 6.20561 14.4251C6.21402 12.4809 6.1725 10.5345 6.24556 8.59236C6.31599 6.72642 6.82269 4.97086 7.93332 3.4266C8.99138 1.95645 10.4121 1.00666 12.1288 0.477365C13.2415 0.134663 14.3842 -0.0361626 15.5463 0.00641234C17.2609 0.0689607 18.9739 0.170405 20.6874 0.252401C20.8677 0.260811 20.9733 0.299707 20.9723 0.524145C20.9639 2.51255 20.9676 4.50096 20.9665 6.48937C20.9665 6.54929 20.9544 6.60869 20.9439 6.70382C20.8346 6.70382 20.7321 6.70382 20.6301 6.70382C19.5179 6.70382 18.4052 6.69226 17.293 6.70855C16.5939 6.71854 15.8927 6.7464 15.2262 7.00973C14.3406 7.35927 13.8765 8.03784 13.7261 8.94453C13.6578 9.35661 13.6278 9.77973 13.6242 10.1981C13.6121 11.6346 13.6242 13.0711 13.6137 14.5077C13.6121 14.7426 13.7098 14.7794 13.9112 14.7789C16.0483 14.7741 18.1855 14.7757 20.3232 14.7762C20.7058 14.7762 20.7116 14.7773 20.6643 15.1447C20.4335 16.9418 20.1991 18.7389 19.9668 20.536C19.9174 20.9181 19.859 21.2991 19.827 21.6828C19.8081 21.9104 19.7087 21.9635 19.4927 21.9625C17.662 21.9541 15.8312 21.9577 14.0005 21.9577C13.7465 21.9577 13.6194 22.0884 13.6194 22.3499C13.6194 28.2273 13.6194 34.1048 13.6194 39.9822V40.3549H6.20561V40.3543Z" fill="white"/>
</svg>
