<svg width="1920" height="450" viewBox="0 0 1920 450" fill="none" xmlns="http://www.w3.org/2000/svg">
<rect width="1920" height="450" fill="#28566E"/>
<g clip-path="url(#clip0_66_502)">
<path d="M1484 466V336.063C1497.04 336.063 1539.9 340.403 1539.9 293.96C1539.9 282.68 1539.8 124 1539.8 124L1666.99 124.21C1666.99 124.21 1667 303.733 1667 319.233C1667 409.996 1611.65 466 1501.64 466H1484Z" stroke="black" stroke-opacity="0.3" stroke-width="5"/>
<path d="M213 360V212.966C227.754 212.966 276.228 217.877 276.228 165.323C276.228 152.559 276.119 -27 276.119 -27L419.989 -26.7629C419.989 -26.7629 420 176.382 420 193.921C420 296.627 357.387 360 232.952 360H213Z" stroke="black" stroke-opacity="0.3" stroke-width="5"/>
<path d="M1892 -156L1892 56.3818C1870.69 56.3818 1800.67 49.2891 1800.67 125.2C1800.67 143.637 1800.83 403 1800.83 403L1593.02 402.657C1593.02 402.657 1593 109.227 1593 83.8915C1593 -64.4612 1683.44 -156 1863.18 -156L1892 -156Z" stroke="white" stroke-opacity="0.3" stroke-width="5"/>
<path d="M359 -26.9999L359 246.551C331.559 246.551 241.401 237.415 241.401 335.19C241.401 358.937 241.605 693 241.605 693L-25.9797 692.559C-25.9797 692.559 -26 314.616 -26 281.984C-26 90.9034 90.4541 -27 321.892 -26.9999L359 -26.9999Z" stroke="white" stroke-opacity="0.3" stroke-width="5"/>
</g>
<defs>
<clipPath id="clip0_66_502">
<rect width="1920" height="450" fill="white"/>
</clipPath>
</defs>
</svg>
