<svg width="46" height="46" viewBox="0 0 46 46" fill="none" xmlns="http://www.w3.org/2000/svg">
<path id="Vector" d="M23.0097 0C44.7756 0.156029 54.2018 27.1839 37.4025 40.969C29.4134 47.5701 17.0757 47.6878 8.95793 41.2481C0.695283 35.0596 -2.2904 23.3196 1.85694 13.8894C5.34718 5.63666 14.0015 -0.234522 23.0088 0.0234522L23.0097 0ZM6.69344 23.1272C6.57818 24.7708 8.15017 25.7672 9.08562 26.9068C9.94216 27.8291 10.7997 28.7505 11.6595 29.6699C12.6988 30.7807 14.3143 32.4947 15.6644 33.9248C17.0011 35.3405 19.2268 35.4161 20.6563 34.0947C24.2202 30.7994 30.6287 24.8679 34.3288 21.407C35.6043 19.9769 38.3963 18.2597 38.7641 16.4658C39.1835 14.6169 37.645 12.7939 35.7631 12.9006C34.0591 12.8796 33.0849 14.4891 31.885 15.4564C30.578 16.6716 29.2733 17.8897 27.9677 19.1059C24.8687 21.9847 21.7888 24.8842 18.696 27.7702C18.41 28.0387 18.3894 28.0512 18.1259 27.7702C16.6983 26.2478 15.2751 24.7219 13.8528 23.1947C13.2765 22.5782 12.6787 21.9804 12.1263 21.3434C10.4854 19.1183 6.61787 20.1909 6.69344 23.1277V23.1272Z" fill="#0DCB9D"/>
</svg>
