<svg width="39" height="39" viewBox="0 0 39 39" fill="none" xmlns="http://www.w3.org/2000/svg">
<path d="M38.7528 19.4139C38.7528 22.2183 38.8263 25.0265 38.7338 27.8284C38.6285 31.0308 37.2568 33.6945 34.8872 35.8371C33.305 37.2672 31.4515 38.1711 29.357 38.5578C28.7181 38.6757 28.0588 38.7379 27.4084 38.7391C22.0253 38.7531 16.6409 38.8127 11.2591 38.7239C7.13616 38.6554 3.96791 36.7208 1.74671 33.2647C0.541024 31.3884 0.01108 29.313 0.0212225 27.0765C0.044043 21.7949 -0.0611851 16.5106 0.0579889 11.2302C0.163217 6.58749 2.50613 3.24554 6.60876 1.13718C8.19478 0.321977 9.90633 0.0088286 11.6939 0.0151676C16.9338 0.0341848 22.1762 -0.046955 27.4148 0.0443272C32.1031 0.126735 35.4856 2.44049 37.6295 6.57101C38.4257 8.10506 38.7705 9.76589 38.7616 11.5015C38.7477 14.1386 38.7578 16.7756 38.7578 19.4126H38.7502L38.7528 19.4139ZM19.368 34.8038V34.8064C21.9213 34.8064 24.4747 34.814 27.0281 34.8C27.553 34.7975 28.0867 34.7607 28.6027 34.6682C32.1348 34.0394 34.7833 30.9307 34.7997 27.3428C34.8238 22.0598 34.8188 16.7769 34.7909 11.4939C34.7871 10.7738 34.6742 10.0258 34.4549 9.34117C33.3887 6.00683 30.5615 3.97834 27.0522 3.97453C21.9454 3.97073 16.8387 3.96946 11.732 3.97961C11.2134 3.97961 10.6873 4.0151 10.1802 4.11273C6.52635 4.81636 3.98946 7.88319 3.98059 11.6194C3.96791 16.801 3.97425 21.9838 3.98186 27.1653C3.98186 27.6331 4.02496 28.106 4.10483 28.5675C4.72986 32.1237 7.84487 34.7721 11.4543 34.8C14.0914 34.8203 16.7284 34.8038 19.3667 34.8038H19.368Z" fill="#28566E"/>
<path d="M29.4661 19.419C29.2962 25.3523 24.6674 29.4866 19.3617 29.4309C13.3827 29.3675 9.29146 24.6183 9.34725 19.3543C9.40937 13.4096 14.118 9.28918 19.4276 9.34243C25.3571 9.40075 29.3938 14.0904 29.4674 19.419H29.4661ZM25.4712 19.3911C25.4865 16.0783 22.7036 13.2955 19.3896 13.3107C16.0527 13.3259 13.3687 16.0035 13.3155 19.3746C13.2635 22.6595 16.0311 25.4398 19.3845 25.4715C22.6821 25.5032 25.456 22.733 25.4712 19.3923V19.3911Z" fill="#28566E"/>
<path d="M29.4407 7.03386C30.7884 7.03767 31.8952 8.147 31.8749 9.47059C31.8547 10.8069 30.739 11.8972 29.4065 11.8858C28.0487 11.8731 26.9951 10.8018 26.9989 9.43763C27.0027 8.08868 28.0766 7.03133 29.442 7.03513L29.4407 7.03386Z" fill="#28566E"/>
</svg>
