<svg width="40" height="40" viewBox="0 0 40 40" fill="none" xmlns="http://www.w3.org/2000/svg">
<path d="M39.9714 20.029C39.9714 22.9222 40.0473 25.8194 39.9518 28.71C39.8433 32.014 38.4284 34.762 35.9843 36.9725C34.3523 38.4479 32.4405 39.3805 30.2802 39.7794C29.6212 39.9011 28.9412 39.9652 28.2703 39.9665C22.7179 39.9808 17.1642 40.0423 11.6131 39.9508C7.36057 39.8801 4.09269 37.8842 1.80164 34.3186C0.558037 32.3828 0.0114285 30.2417 0.0218899 27.9344C0.0454281 22.4854 -0.0631092 17.0337 0.0598125 11.586C0.16835 6.79619 2.58494 3.34837 6.81658 1.17321C8.45249 0.332178 10.2178 0.00910831 12.0617 0.0156482C17.4663 0.0352678 22.8735 -0.0484427 28.2769 0.0457316C33.1127 0.13075 36.6015 2.51781 38.8128 6.77919C39.634 8.36184 39.9897 10.0753 39.9806 11.8659C39.9662 14.5865 39.9767 17.3071 39.9767 20.0277H39.9688L39.9714 20.029ZM19.977 35.9065V35.9091C22.6107 35.9091 25.2444 35.917 27.878 35.9026C28.4194 35.9 28.9699 35.862 29.5022 35.7666C33.1454 35.1178 35.8771 31.9106 35.8941 28.2091C35.9189 22.7587 35.9137 17.3084 35.8849 11.8581C35.881 11.1151 35.7646 10.3434 35.5384 9.63712C34.4386 6.19714 31.5225 4.10438 27.9029 4.10046C22.6356 4.09653 17.3682 4.09522 12.1009 4.10569C11.5661 4.10569 11.0234 4.14231 10.5003 4.24303C6.73158 4.96895 4.11492 8.13295 4.10577 11.9876C4.09269 17.3332 4.09923 22.6803 4.10707 28.0259C4.10707 28.5086 4.15153 28.9965 4.23392 29.4726C4.8786 33.1414 8.09157 35.8738 11.8145 35.9026C14.5345 35.9235 17.2545 35.9065 19.9757 35.9065H19.977Z" fill="white"/>
<path d="M30.3927 20.0342C30.2175 26.1555 25.4432 30.4208 19.9705 30.3633C13.8035 30.2979 9.58365 25.3982 9.64119 19.9675C9.70527 13.8344 14.562 9.58348 20.0385 9.63842C26.1545 9.69858 30.3182 14.5368 30.394 20.0342H30.3927ZM26.2722 20.0054C26.2879 16.5877 23.4176 13.7167 19.9993 13.7324C16.5575 13.7481 13.7891 16.5105 13.7342 19.9884C13.6806 23.3774 16.5353 26.2458 19.9941 26.2785C23.3953 26.3112 26.2565 23.4533 26.2722 20.0067V20.0054Z" fill="white"/>
<path d="M30.3666 7.25671C31.7566 7.26063 32.8982 8.40511 32.8773 9.77064C32.8564 11.1492 31.7056 12.2741 30.3313 12.2623C28.9307 12.2493 27.8441 11.144 27.848 9.73663C27.8519 8.34495 28.9595 7.25409 30.3679 7.25802L30.3666 7.25671Z" fill="white"/>
</svg>
