<svg width="662" height="595" viewBox="0 0 662 595" fill="none" xmlns="http://www.w3.org/2000/svg">
<g opacity="0.2">
<path d="M0 595V368.941C22.6652 368.941 97.1314 376.49 97.1314 295.69C97.1314 276.066 96.9632 0 96.9632 0L317.976 0.364595C317.976 0.364595 317.993 312.693 317.993 339.659C317.993 497.566 221.807 595 30.6499 595H0Z" fill="#28566E"/>
<path d="M661.425 6.10352e-05L661.425 226.059C638.76 226.059 564.294 218.51 564.294 299.31C564.294 318.934 564.462 595 564.462 595L343.449 594.635C343.449 594.635 343.432 282.307 343.432 255.341C343.432 97.4341 439.618 4.16442e-05 630.775 5.83557e-05L661.425 6.10352e-05Z" fill="#28566E"/>
</g>
</svg>
