<svg width="222" height="80" viewBox="0 0 222 80" fill="none" xmlns="http://www.w3.org/2000/svg">
<path d="M24.4631 17.7591C23.7232 17.7071 7.86643 17.7186 7.36928 17.7706C7.35772 17.8574 7.32881 17.9499 7.32303 18.0481C7.31725 18.2331 7.32303 18.4123 7.32303 18.5973C7.32303 25.5169 7.32303 32.4423 7.32303 39.3619C7.32303 39.7261 7.32303 40.0903 7.31725 40.4603C7.31725 40.7031 7.32303 40.9459 7.2421 41.1829C7.19585 41.3101 7.2132 41.4604 7.20742 41.6049C7.17273 42.5587 6.80854 43.3623 6.16687 44.0617C5.49052 44.7901 4.64074 45.1716 3.69847 45.3855C3.01055 45.5474 2.31108 45.6572 1.60004 45.6399C1.21273 45.6283 0.831193 45.6399 0.443879 45.6399C0.328263 45.6399 0.206867 45.6225 0.0623466 45.6052C0.0450042 45.4896 0.0161002 45.3971 0.0103194 45.2988C0.00453865 45.1601 0.0103194 45.0156 0.0103194 44.871C0.0103194 35.5755 0.0103194 26.28 0.0103194 16.9787C0.0103194 16.759 -0.0243654 16.5336 0.0334426 16.3659C0.149059 16.233 0.253113 16.2445 0.351387 16.2445C0.513249 16.2445 0.675112 16.2445 0.836974 16.2445C17.2198 16.2445 33.6083 16.2445 49.9911 16.2445H50.7426C50.7773 16.3544 50.8236 16.4468 50.8236 16.5393C50.8351 16.9035 50.8236 17.2677 50.8236 17.655C50.6848 17.6839 50.5692 17.7302 50.4594 17.7302C49.6501 17.736 48.835 17.736 48.0257 17.7417C47.7829 17.7417 47.5458 17.7417 47.303 17.8111C47.0949 17.8689 46.8579 17.84 46.6383 17.8458C46.1758 17.8689 45.7076 17.8053 45.2509 17.9556C45.1584 17.9845 45.0485 17.9672 44.9503 17.973C44.667 17.9845 44.378 17.9556 44.112 18.0712C44.0774 18.0886 44.0311 18.0886 43.9907 18.0886C43.4415 18.1002 42.9154 18.2331 42.3778 18.314C41.898 18.3892 41.424 18.4759 40.95 18.5857C40.499 18.6898 40.0424 18.7823 39.5972 18.9037C38.5394 19.1754 37.5104 19.5396 36.5103 19.9731C35.4119 20.4472 34.3656 21.031 33.3887 21.7189C32.8568 22.0947 32.3539 22.4936 31.8914 22.9502C31.1977 23.6324 30.5272 24.3376 29.9549 25.1296C29.6311 25.5747 29.3363 26.0314 29.082 26.5112C28.6715 27.2801 28.2669 28.0489 27.9547 28.864C27.579 29.8467 27.2899 30.8526 27.0587 31.8758C26.9488 32.3672 26.8621 32.8643 26.7523 33.3557C26.6772 33.6678 26.7523 34.0089 26.6078 34.3095C26.6251 34.876 26.4344 35.4252 26.4633 35.9975C26.4806 36.3212 26.4864 36.645 26.3766 36.9629C26.3303 37.0901 26.3592 37.2462 26.3592 37.3849C26.3592 38.1537 26.3534 38.9284 26.3534 39.6972C26.3534 47.2874 26.3534 54.8834 26.3534 62.4736C26.3534 62.7164 26.3592 62.9534 26.365 63.1499C26.4748 63.2829 26.5847 63.2598 26.6829 63.2655C26.8275 63.2655 26.9662 63.2655 27.1107 63.2655C32.3308 63.2655 37.5451 63.2655 42.7651 63.2655C42.9848 63.2655 43.2045 63.2598 43.4588 63.254C43.4819 63.1384 43.5051 63.0459 43.5108 62.9476C43.5166 62.7626 43.5108 62.5834 43.5108 62.3984C43.5108 55.4788 43.5108 48.5534 43.5108 41.6338C43.5108 41.2696 43.5108 40.9054 43.5166 40.5354C43.5166 40.2926 43.5108 40.0499 43.5918 39.8128C43.638 39.6857 43.6265 39.5354 43.6265 39.3908C43.6611 38.4428 44.0196 37.6335 44.667 36.934C45.3434 36.2056 46.1931 35.8241 47.1354 35.6044C47.8233 35.4483 48.5228 35.3327 49.2338 35.3501C49.7368 35.3616 50.2455 35.3501 50.7715 35.3501C50.8004 35.4715 50.8293 35.564 50.8409 35.6622C50.8525 35.8241 50.8409 35.986 50.8409 36.1478C50.8409 45.4029 50.8409 54.6579 50.8409 63.9188C50.8409 64.1616 50.8698 64.4044 50.8004 64.6703C50.6964 64.6876 50.6039 64.7165 50.5114 64.7223C50.3495 64.7281 50.1877 64.7223 50.0258 64.7223C33.6604 64.7223 17.2949 64.7223 0.929467 64.7223C0.744481 64.7223 0.565276 64.7223 0.380291 64.7223C0.149059 64.7107 0.0334426 64.6125 0.0276618 64.3928C0.0161002 64.0517 0.0276618 63.7049 0.0276618 63.3349C0.16062 63.306 0.270455 63.254 0.386072 63.254C1.19538 63.2424 2.01048 63.2482 2.81979 63.2424C3.06258 63.2424 3.29959 63.2424 3.54239 63.1673C3.71003 63.1152 3.90658 63.1441 4.08578 63.1326C4.58871 63.1037 5.09742 63.1788 5.59457 63.0228C5.68707 62.9939 5.7969 63.0112 5.89517 63.0112C6.17843 62.9996 6.46169 63.0285 6.73339 62.9129C6.76807 62.8956 6.81432 62.9014 6.85479 62.8956C7.40396 62.884 7.93002 62.7568 8.46763 62.6701C8.92431 62.595 9.381 62.514 9.8319 62.41C10.2655 62.3059 10.7048 62.2481 11.1326 62.1267C12.7512 61.6758 14.3351 61.1093 15.8092 60.2884C16.6243 59.8375 17.4047 59.3346 18.1331 58.7507C18.8384 58.19 19.4685 57.5599 20.0581 56.8951C20.8096 56.0453 21.4513 55.1146 21.9658 54.0914C22.4861 53.0567 22.9774 52.0219 23.3127 50.912C23.5786 50.0449 23.7694 49.1546 23.9833 48.2759C24.07 47.906 24.0874 47.5186 24.1394 47.1371C24.203 46.6804 24.2839 46.2237 24.3417 45.7613C24.3706 45.559 24.3706 45.3566 24.3764 45.1543C24.388 44.7496 24.3706 44.345 24.4804 43.9461C24.5209 43.7958 24.492 43.6224 24.492 43.4605C24.492 41.5529 24.4978 39.6452 24.4978 37.7375C24.4978 31.3035 24.4978 24.8695 24.4978 18.4354C24.4978 18.2158 24.4862 17.9961 24.4804 17.7417L24.4631 17.7591Z" fill="#020304"/>
<path d="M174.694 29.107C174.694 28.4942 174.694 27.8873 174.694 27.2803C174.694 26.6733 174.671 26.0663 174.712 25.4882C174.775 25.442 174.804 25.4015 174.839 25.4015C175.388 25.3495 176.446 25.3726 176.868 25.442C176.885 25.5229 176.908 25.6212 176.914 25.7137C176.926 25.8351 176.914 25.9565 176.914 26.0779C176.914 33.1825 176.914 40.2813 176.914 47.3859C176.914 48.4438 176.764 49.4786 176.434 50.4786C176.099 51.4845 175.608 52.4094 174.816 53.1494C174.463 53.4789 174.128 53.8315 173.735 54.1263C173.081 54.6177 172.359 54.9645 171.602 55.2536C170.862 55.5368 170.087 55.664 169.318 55.8374C169.22 55.8606 169.116 55.849 169.018 55.8548C168.717 55.8721 168.416 55.8548 168.116 55.9473C167.948 55.9993 167.752 55.9704 167.572 55.9704C167.249 55.9704 166.925 55.9704 166.595 55.9704C166.353 55.9704 166.11 55.9877 165.873 55.8952C165.78 55.8606 165.67 55.8721 165.572 55.8663C164.578 55.8085 163.624 55.5657 162.693 55.2131C161.948 54.9356 161.254 54.5599 160.589 54.1379C160.283 53.9471 160.005 53.7043 159.728 53.4673C159.485 53.2534 159.259 53.0164 159.028 52.7852C158.271 52.0221 157.733 51.1261 157.467 50.0855C157.363 49.6809 157.271 49.2589 157.282 48.8311C157.282 48.756 157.306 48.675 157.317 48.6172C157.375 48.5825 157.41 48.5421 157.444 48.5421C158.011 48.5305 158.577 48.5247 159.15 48.5247C159.34 48.5247 159.45 48.6403 159.479 48.8195C159.479 48.86 159.491 48.9005 159.491 48.9409C159.502 49.993 159.999 50.837 160.676 51.5886C161.468 52.473 162.474 53.0164 163.566 53.4268C164.191 53.6639 164.838 53.7853 165.503 53.9009C166.393 54.057 167.283 54.0396 168.168 53.9702C169.15 53.8951 170.122 53.6523 171.023 53.2187C171.555 52.9644 172.047 52.6407 172.492 52.2591C173.162 51.6868 173.694 50.9989 174.064 50.1954C174.376 49.5132 174.579 48.7964 174.596 48.0334C174.596 47.9524 174.584 47.8657 174.608 47.7906C174.758 47.2761 174.694 46.7442 174.7 46.2182C174.706 45.3453 174.7 44.4724 174.7 43.5995V43.1139C174.55 43.1312 174.521 43.2353 174.475 43.322C174.168 43.9463 173.717 44.4608 173.249 44.9695C172.289 46.0101 171.087 46.6691 169.781 47.1373C169.353 47.2934 168.89 47.3801 168.428 47.4553C167.844 47.5536 167.26 47.5536 166.676 47.5536C165.965 47.5593 165.266 47.4379 164.578 47.2819C163.566 47.0506 162.624 46.6286 161.757 46.0563C161.456 45.8598 161.173 45.617 160.907 45.3742C160.184 44.7152 159.549 43.9868 159.034 43.1544C158.479 42.2526 158.074 41.2872 157.785 40.2697C157.647 39.7842 157.508 39.2928 157.45 38.8014C157.398 38.3216 157.277 37.8476 157.282 37.3562C157.294 36.6683 157.277 35.9746 157.282 35.2867C157.294 33.6565 157.618 32.0899 158.213 30.5638C158.612 29.5521 159.144 28.6272 159.832 27.8006C160.664 26.7947 161.659 25.9507 162.855 25.4015C163.514 25.1009 164.208 24.8812 164.925 24.7367C165.861 24.5402 166.809 24.4708 167.757 24.5286C168.278 24.5575 168.792 24.6731 169.307 24.7945C169.821 24.9159 170.312 25.1009 170.792 25.309C171.445 25.5981 172.041 25.9796 172.573 26.4536C173.07 26.8987 173.561 27.3612 173.925 27.9277C174.122 28.2341 174.295 28.5521 174.475 28.87C174.527 28.9567 174.55 29.0608 174.7 29.0897L174.694 29.107ZM159.502 35.9919C159.508 36.5758 159.491 37.1597 159.595 37.7435C159.658 38.1193 159.653 38.5066 159.745 38.8823C159.866 39.3911 159.959 39.9113 160.138 40.4027C160.462 41.2987 160.878 42.1543 161.445 42.9289C161.924 43.5879 162.485 44.166 163.156 44.6342C163.745 45.0447 164.387 45.3279 165.069 45.5361C165.751 45.7442 166.462 45.7384 167.162 45.8367C167.202 45.8367 167.249 45.8482 167.283 45.8367C167.711 45.7037 168.162 45.721 168.595 45.6228C170.11 45.2759 171.272 44.3972 172.237 43.2411C172.908 42.4318 173.446 41.5242 173.85 40.5472C174.128 39.8709 174.301 39.1656 174.457 38.4603C174.579 37.9054 174.613 37.3389 174.608 36.7724C174.608 36.651 174.613 36.5238 174.648 36.4139C174.723 36.1712 174.723 35.9399 174.648 35.6971C174.619 35.6046 174.608 35.4948 174.613 35.3965C174.625 34.8705 174.573 34.3444 174.475 33.8299C174.359 33.194 174.203 32.5697 173.983 31.9627C173.792 31.4251 173.532 30.9222 173.272 30.4193C172.96 29.8007 172.555 29.24 172.104 28.7255C171.341 27.841 170.434 27.1358 169.318 26.7311C168.786 26.5346 168.249 26.3727 167.671 26.3843C167.266 26.39 166.861 26.3843 166.451 26.3843C165.63 26.3843 164.855 26.6155 164.11 26.945C163.549 27.1936 163.063 27.5404 162.595 27.9451C162.098 28.3729 161.699 28.8758 161.312 29.3903C160.982 29.8296 160.734 30.321 160.508 30.8181C160.132 31.6506 159.866 32.5119 159.728 33.4195C159.67 33.801 159.658 34.1826 159.583 34.5583C159.537 34.8011 159.514 35.0381 159.508 35.2809C159.508 35.5237 159.508 35.7665 159.508 36.0093L159.502 35.9919Z" fill="#020304"/>
<path d="M96.9139 37.3561C97.6191 37.2925 98.3013 37.3388 98.9892 37.3214C99.1337 37.6567 99.0932 37.9689 99.0412 38.2521C98.9256 38.9054 98.7926 39.5586 98.6192 40.2003C98.492 40.6743 98.3302 41.1252 98.1452 41.5703C97.7637 42.4895 97.2781 43.3624 96.6537 44.137C96.226 44.6688 95.7982 45.2064 95.2374 45.6342C94.7865 45.9753 94.3819 46.3742 93.9079 46.6863C92.5898 47.5534 91.162 48.1373 89.6127 48.4321C88.8959 48.5651 88.1849 48.6807 87.4507 48.6807C87.1501 48.6807 86.8495 48.7674 86.5489 48.7674C86.2483 48.7674 85.9477 48.6923 85.6471 48.6807C84.1788 48.6229 82.7798 48.2818 81.4213 47.7153C80.5369 47.3453 79.7333 46.8482 78.9529 46.3048C78.5194 46.0042 78.1032 45.6862 77.7274 45.3163C77.3112 44.9 76.8834 44.4896 76.4845 44.0618C75.8024 43.3392 75.2012 42.5473 74.6867 41.7033C74.3919 41.2177 74.126 40.7148 73.8658 40.2118C73.1837 38.8938 72.7328 37.4948 72.4669 36.0323C72.3686 35.4947 72.2183 34.9686 72.2356 34.4195C72.016 33.2113 72.1547 31.9915 72.1316 30.7776C72.2588 30.2688 72.2299 29.737 72.3281 29.2225C72.4206 28.7485 72.4842 28.2687 72.5998 27.8004C72.8079 26.9333 73.0796 26.0951 73.4149 25.2684C73.8369 24.2106 74.3803 23.2163 75.0278 22.2856C75.3631 21.8057 75.7446 21.3548 76.0857 20.8808C76.3574 20.4993 76.6926 20.1698 77.0164 19.8403C77.7852 19.0541 78.6292 18.372 79.5484 17.765C80.693 17.0077 81.9358 16.4932 83.2538 16.1406C83.8782 15.9729 84.5198 15.9093 85.1557 15.7822C85.2714 15.759 85.3985 15.7706 85.5199 15.7706C86.231 15.7706 86.942 15.7822 87.653 15.7706C88.1444 15.759 88.6184 15.8689 89.0982 15.9382C89.5896 16.0076 90.0868 16.1117 90.5781 16.2446C91.7401 16.5626 92.8269 17.0366 93.8501 17.6667C94.7923 18.239 95.6421 18.9269 96.3821 19.7362C96.9717 20.3779 97.492 21.0716 97.9024 21.8462C98.4111 22.8 98.758 23.8117 99.0297 24.8464C99.0817 25.043 99.1106 25.2395 99.0297 25.465C98.9661 25.4823 98.8909 25.5228 98.8158 25.5228C98.3071 25.5286 97.7983 25.5344 97.2954 25.5228C96.9948 25.5228 96.9139 25.4534 96.8156 25.1586C96.7809 25.0661 96.7694 24.9621 96.7405 24.8638C96.3994 23.4764 95.7288 22.274 94.7287 21.2508C94.1449 20.6554 93.5206 20.112 92.8153 19.6668C91.7805 19.0136 90.6822 18.5107 89.4856 18.2332C88.9133 18.1003 88.3467 17.95 87.7513 17.9731C87.2368 17.8228 86.705 17.8748 86.1789 17.869C85.9766 17.869 85.7743 17.8575 85.5777 17.9442C85.5084 17.9731 85.4216 17.9731 85.3407 17.9789C84.173 18.054 83.0804 18.3893 82.0283 18.8807C81.1034 19.3142 80.2825 19.8923 79.4906 20.5282C78.6234 21.2219 77.9529 22.0717 77.2765 22.933C76.7504 23.6036 76.3169 24.3377 75.9469 25.1008C75.3688 26.309 74.9122 27.5519 74.6809 28.8814C74.5769 29.4769 74.4381 30.0665 74.4497 30.6793C74.2647 31.4597 74.363 32.2517 74.3456 33.0378C74.3456 33.2402 74.3341 33.4425 74.415 33.639C74.4497 33.7315 74.4497 33.8356 74.4497 33.9396C74.4728 34.9571 74.7156 35.934 74.97 36.911C75.1896 37.755 75.5249 38.5585 75.9007 39.3389C76.3574 40.287 76.9239 41.1714 77.5771 42.0039C78.161 42.738 78.8142 43.4028 79.5137 44.0214C80.3345 44.744 81.2306 45.3625 82.2653 45.7672C82.8897 46.01 83.5082 46.247 84.1614 46.3915C84.6123 46.4898 85.069 46.588 85.5373 46.5938C85.861 46.5938 86.1847 46.5765 86.5027 46.6805C86.6067 46.7152 86.7397 46.669 86.8611 46.6574C87.0229 46.6401 87.179 46.5996 87.3409 46.5996C88.7803 46.5938 90.1446 46.2354 91.4337 45.6342C92.2603 45.2469 93.0234 44.744 93.6824 44.1081C94.22 43.5878 94.7461 43.056 95.1681 42.4259C95.856 41.4084 96.33 40.2985 96.5959 39.1077C96.7173 38.5585 96.7983 37.9978 96.9081 37.3734L96.9139 37.3561Z" fill="#020304"/>
<path d="M135.859 36.7492C135.882 37.3678 135.818 37.9112 135.951 38.4546C136.032 38.8014 136.026 39.1714 136.09 39.5298C136.367 41.0675 136.951 42.4722 137.853 43.744C138.483 44.6342 139.304 45.3164 140.252 45.8482C140.801 46.1546 141.403 46.328 142.021 46.4667C142.397 46.5477 142.778 46.5939 143.16 46.5939C143.281 46.5939 143.397 46.6344 143.518 46.646C143.634 46.6575 143.755 46.6633 143.877 46.6517C144.056 46.6402 144.235 46.5881 144.414 46.5939C145.131 46.5997 145.819 46.4378 146.49 46.2182C147.241 45.9696 147.964 45.6517 148.611 45.1892C149.189 44.7787 149.727 44.3336 150.189 43.7845C150.681 43.2064 151.08 42.582 151.398 41.8999C151.473 41.7381 151.53 41.5646 151.588 41.4201C152.051 41.3334 153.022 41.3218 153.681 41.3854C153.849 41.5531 153.797 41.7727 153.745 41.9519C153.473 42.8884 153.126 43.7902 152.542 44.588C152.12 45.1661 151.623 45.6748 151.097 46.143C150.611 46.5708 150.079 46.9408 149.513 47.2587C148.929 47.5824 148.328 47.8773 147.698 48.1027C147.126 48.305 146.536 48.4264 145.946 48.5594C145.49 48.6634 145.027 48.6808 144.559 48.6924C144.397 48.6924 144.241 48.7328 144.079 48.7559C143.819 48.7964 143.559 48.8138 143.299 48.7386C143.183 48.7039 143.062 48.6866 142.94 48.6924C142.304 48.7213 141.692 48.5883 141.085 48.4322C140.079 48.1779 139.119 47.7905 138.269 47.1951C137.315 46.5303 136.506 45.7152 135.836 44.7556C134.968 43.5128 134.367 42.1485 134.026 40.6802C133.911 40.1715 133.824 39.6512 133.743 39.1367C133.662 38.5933 133.656 38.0499 133.639 37.5065C133.633 37.3042 133.645 37.1018 133.575 36.9053C133.535 36.7955 133.523 36.6567 133.552 36.5469C133.679 36.148 133.633 35.7434 133.639 35.3387C133.656 34.4485 133.812 33.5756 134.015 32.7084C134.234 31.7604 134.529 30.8355 134.974 29.9741C135.373 29.1995 135.847 28.4769 136.402 27.8005C136.934 27.1473 137.564 26.6155 138.235 26.1357C138.865 25.6906 139.547 25.3206 140.281 25.0951C140.934 24.8928 141.599 24.7367 142.281 24.6442C142.929 24.5517 143.57 24.5633 144.218 24.5517C144.461 24.5517 144.703 24.5402 144.94 24.6327C145.033 24.6673 145.143 24.6616 145.241 24.6616C145.709 24.6673 146.16 24.7887 146.605 24.9044C147.334 25.0893 148.027 25.3668 148.686 25.7252C149.259 26.0316 149.808 26.3727 150.27 26.8351C150.369 26.9334 150.484 27.0201 150.594 27.1068C150.658 27.1589 150.733 27.1936 150.785 27.2571C151.282 27.8641 151.808 28.4538 152.224 29.1301C152.82 30.1071 153.213 31.165 153.467 32.2691C153.646 33.0322 153.802 33.8068 153.779 34.6045C153.773 34.8647 153.802 35.1248 153.849 35.385C153.906 35.7376 153.872 36.1133 153.86 36.4775C153.86 36.6163 153.721 36.7261 153.565 36.7319C153.38 36.7434 153.201 36.7377 153.016 36.7377C147.536 36.7377 142.056 36.7377 136.576 36.7377C136.356 36.7377 136.136 36.7492 135.853 36.755L135.859 36.7492ZM151.53 34.5005C151.6 33.8819 151.548 33.3443 151.426 32.8067C151.247 32.0147 150.993 31.2575 150.571 30.5522C150.259 30.0262 149.895 29.5521 149.496 29.0897C149.149 28.6908 148.75 28.3555 148.328 28.0433C147.386 27.3496 146.351 26.8583 145.195 26.6675C144.738 26.5924 144.281 26.4999 143.813 26.5056C143.472 26.5056 143.131 26.5519 142.79 26.5924C142.125 26.6733 141.489 26.8409 140.859 27.0722C139.784 27.4595 138.94 28.1763 138.119 28.9278C137.928 29.1012 137.778 29.3267 137.616 29.529C137.183 30.0666 136.836 30.6505 136.541 31.2748C136.2 31.9974 136.032 32.7605 135.876 33.5293C135.812 33.8357 135.801 34.1652 135.888 34.4716C136.535 34.5467 148.23 34.5756 151.184 34.5178C151.282 34.5178 151.38 34.5005 151.513 34.4889L151.53 34.5005Z" fill="#020304"/>
<path d="M202.269 46.8829C202.269 47.2008 202.269 47.4667 202.269 47.7269C202.269 47.8887 202.171 47.9986 202.026 48.039C201.581 48.1662 201.142 48.3223 200.662 48.305C200.517 48.2992 200.379 48.305 200.234 48.305C199.506 48.3223 198.91 48.0448 198.373 47.5535C197.795 47.0216 197.471 46.3684 197.274 45.6342C197.228 45.4608 197.234 45.2758 197.217 45.0619C197.17 45.1255 197.13 45.1602 197.107 45.2065C196.766 45.8366 196.332 46.3684 195.771 46.8309C194.812 47.6286 193.702 48.0911 192.523 48.409C191.898 48.5767 191.262 48.6865 190.609 48.6749C190.453 48.6749 190.291 48.727 190.129 48.7327C189.927 48.7443 189.725 48.7501 189.528 48.7327C189.349 48.7212 189.17 48.6634 188.991 48.6692C188.337 48.6865 187.707 48.5304 187.083 48.3685C186.216 48.1431 185.395 47.7905 184.655 47.2818C183.701 46.617 182.863 45.8134 182.291 44.7845C182.007 44.2757 181.811 43.715 181.759 43.1196C181.736 42.8768 181.655 42.6398 181.66 42.4028C181.678 41.1136 182.059 39.9517 182.88 38.9285C183.435 38.2406 184.106 37.6914 184.817 37.2C185.776 36.541 186.84 36.1017 187.979 35.8473C188.528 35.7259 189.077 35.5699 189.65 35.593C190.095 35.4542 190.574 35.5352 191.025 35.3907C191.1 35.3675 191.187 35.3733 191.268 35.3675C192.28 35.2982 193.263 35.0727 194.234 34.801C194.76 34.6565 195.28 34.5004 195.789 34.2981C196.211 34.1304 196.581 33.8876 196.933 33.6217C197.199 33.4252 197.35 33.1246 197.355 32.7835C197.367 32.0725 197.39 31.3614 197.35 30.6504C197.321 30.1937 197.165 29.7544 196.933 29.3382C196.546 28.656 195.945 28.2167 195.303 27.8351C194.766 27.5172 194.205 27.2282 193.586 27.0836C193.413 27.0432 193.234 27.0143 193.054 26.968C192.384 26.7946 191.707 26.7426 191.014 26.731C190.072 26.7137 189.158 26.8582 188.268 27.1299C187.534 27.3553 186.84 27.6848 186.233 28.182C185.95 28.4132 185.69 28.656 185.464 28.9451C185.048 29.4827 184.851 30.0723 184.846 30.7429C184.846 31.084 184.875 31.4308 184.823 31.7487C184.765 31.7892 184.736 31.8355 184.707 31.8355C184.083 31.8817 183.458 31.8759 182.805 31.8355C182.782 31.7256 182.747 31.6273 182.747 31.5349C182.741 31.1071 182.753 30.6793 182.747 30.2573C182.718 29.3382 183.077 28.552 183.643 27.864C184.32 27.0432 185.164 26.4073 186.135 25.9622C186.817 25.65 187.522 25.4072 188.256 25.2511C188.95 25.1008 189.644 24.9794 190.355 25.0025C190.719 25.0141 191.083 25.0141 191.453 25.0025C192.725 24.9621 193.939 25.2222 195.135 25.6211C196.026 25.9159 196.858 26.3495 197.598 26.9102C198.095 27.286 198.54 27.7369 198.905 28.2571C199.303 28.8294 199.483 29.448 199.477 30.1359C199.477 33.1997 199.477 36.2636 199.477 39.3332C199.477 40.7148 199.477 42.0964 199.477 43.4722C199.477 44.0619 199.569 44.6342 199.708 45.2065C199.847 45.773 200.124 46.2586 200.564 46.6401C200.916 46.9465 201.327 47.0621 201.795 46.9465C201.928 46.9118 202.072 46.9002 202.281 46.8655L202.269 46.8829ZM197.361 35.6623C197.078 35.8011 196.87 35.9167 196.644 36.015C195.598 36.4717 194.488 36.674 193.378 36.8648C193.037 36.9226 192.696 36.9515 192.361 37.0151C192.101 37.0671 191.84 37.0844 191.58 37.1075C191.32 37.1307 191.06 37.2174 190.806 37.2116C190.256 37.1885 189.725 37.3792 189.175 37.3561C189.135 37.3561 189.095 37.3619 189.054 37.3735C188.308 37.5585 187.568 37.7492 186.886 38.1307C186.117 38.5585 185.435 39.0788 184.892 39.7725C184.083 40.8073 183.794 41.9576 184.112 43.2468C184.296 43.9925 184.684 44.6284 185.21 45.1775C185.389 45.3683 185.609 45.5128 185.817 45.6805C186.453 46.2008 187.17 46.5649 187.956 46.7904C188.54 46.958 189.152 46.9523 189.748 47.0563C189.846 47.0737 189.95 47.039 190.048 47.0274C190.17 47.0101 190.285 46.9696 190.407 46.9638C190.754 46.958 191.089 46.9118 191.424 46.8424C192.141 46.6921 192.812 46.432 193.453 46.0794C193.95 45.8019 194.384 45.4492 194.835 45.0966C195.361 44.692 195.748 44.1833 196.141 43.6745C196.581 43.108 196.858 42.449 197.078 41.7784C197.257 41.2293 197.384 40.657 197.373 40.0558C197.344 38.8013 197.361 37.5411 197.361 36.2809C197.361 36.1017 197.361 35.9167 197.361 35.6739V35.6623Z" fill="#020304"/>
<path d="M104.649 31.743C104.591 31.8066 104.58 31.8298 104.562 31.8355C104.464 31.8471 104.36 31.8644 104.262 31.8702C103.736 31.8702 103.21 31.8702 102.655 31.8702C102.626 31.7373 102.579 31.6274 102.574 31.5118C102.562 31.1072 102.579 30.7025 102.568 30.2921C102.545 29.5348 102.788 28.8642 103.198 28.2399C103.556 27.6907 104.03 27.2456 104.539 26.8409C105.574 26.02 106.776 25.5576 108.048 25.257C108.759 25.0893 109.476 24.9795 110.21 25.0026C110.557 25.0142 110.898 25.0142 111.245 25.0026C112.58 24.9506 113.852 25.2396 115.101 25.6732C115.95 25.968 116.742 26.3842 117.448 26.9334C117.875 27.2687 118.269 27.6676 118.61 28.0896C119.084 28.6908 119.315 29.3903 119.309 30.1764C119.298 34.6219 119.309 39.0673 119.303 43.5128C119.303 44.1255 119.402 44.7209 119.552 45.3048C119.696 45.8424 119.985 46.3049 120.407 46.6748C120.65 46.8887 120.945 46.9465 121.234 47.0333C121.303 47.0564 121.39 47.0217 121.471 47.0044C121.662 46.9639 121.853 46.9234 122.072 46.8714C122.124 47.1893 122.101 47.4668 122.095 47.7501C122.095 47.8888 122.003 47.9871 121.887 48.0218C121.465 48.149 121.043 48.305 120.592 48.2993C120.39 48.2993 120.188 48.2993 119.985 48.2993C119.326 48.2993 118.771 48.0507 118.286 47.6113C117.731 47.1084 117.338 46.5072 117.17 45.773C117.118 45.5476 117.078 45.3164 117.037 45.0851C116.846 45.3742 116.661 45.6632 116.471 45.9465C115.95 46.7038 115.205 47.1836 114.424 47.6229C113.661 48.0565 112.829 48.3282 111.979 48.5074C111.511 48.6056 111.031 48.6981 110.54 48.6808C110.262 48.675 109.979 48.7675 109.701 48.7675C109.441 48.7675 109.181 48.6808 108.921 48.6808C108.308 48.6808 107.719 48.5767 107.129 48.4264C105.701 48.0738 104.452 47.4148 103.4 46.38C102.967 45.9522 102.562 45.5013 102.244 44.9753C101.961 44.4955 101.666 43.7035 101.608 43.1601C101.579 42.9 101.498 42.6398 101.504 42.3855C101.533 41.0964 101.892 39.9171 102.753 38.9228C102.938 38.7089 103.094 38.4661 103.302 38.2811C104.233 37.466 105.233 36.7608 106.406 36.3041C107.204 35.9919 108.031 35.8358 108.852 35.6335C108.892 35.622 108.933 35.6277 108.973 35.622C109.476 35.5757 109.979 35.5526 110.482 35.4832C111.8 35.304 113.118 35.1248 114.395 34.7202C114.8 34.593 115.199 34.46 115.598 34.3155C116.026 34.1594 116.384 33.8993 116.748 33.6507C117.031 33.4599 117.176 33.1478 117.188 32.8183C117.211 32.0899 117.216 31.3557 117.188 30.6273C117.164 30.0955 116.922 29.6157 116.65 29.159C116.407 28.7486 116.049 28.448 115.667 28.1821C114.829 27.604 113.927 27.1762 112.915 26.9565C111.95 26.7484 110.99 26.708 110.019 26.7542C109.476 26.7773 108.944 26.9103 108.418 27.0432C107.418 27.2976 106.516 27.7485 105.753 28.4249C105.083 29.0261 104.661 29.7718 104.684 30.7141C104.684 30.98 104.684 31.2401 104.684 31.506C104.684 31.6043 104.666 31.6968 104.661 31.743H104.649ZM117.182 35.6624C116.933 35.7896 116.725 35.9052 116.511 36.0035C116.107 36.1885 115.685 36.3214 115.251 36.437C114.141 36.7261 112.378 37.0325 111.326 37.1018C111.262 37.1018 111.199 37.0961 111.147 37.1134C110.834 37.2348 110.505 37.1943 110.187 37.2232C109.863 37.2521 109.545 37.2868 109.227 37.3389C108.869 37.3967 108.511 37.4603 108.164 37.5412C107.649 37.6626 107.181 37.8996 106.707 38.1366C106.1 38.4372 105.152 39.154 104.632 39.8766C104.21 40.4605 103.921 41.1137 103.851 41.8248C103.747 42.8884 104.025 43.8596 104.684 44.7267C104.921 45.0389 105.21 45.2817 105.499 45.536C106.071 46.039 106.713 46.4147 107.424 46.6633C107.88 46.8251 108.343 46.9697 108.84 46.9523C108.979 46.9523 109.129 46.9581 109.262 46.9986C109.505 47.0679 109.736 47.0737 109.979 46.9928C110.071 46.9639 110.181 46.9465 110.279 46.9581C110.673 46.9986 111.048 46.8945 111.418 46.8078C112.072 46.6633 112.69 46.4147 113.274 46.091C113.788 45.8019 114.234 45.4204 114.702 45.0736C115.222 44.6863 115.598 44.1949 115.968 43.692C116.378 43.137 116.685 42.5127 116.893 41.8537C117.066 41.2987 117.222 40.738 117.211 40.1368C117.188 38.8361 117.205 37.5412 117.205 36.2405C117.205 36.0613 117.193 35.8821 117.188 35.6682L117.182 35.6624Z" fill="#020304"/>
<path d="M61.6396 0.804135C61.8709 0.792573 62.027 0.775231 62.1888 0.775231C62.4721 0.775231 62.7553 0.746327 63.0617 0.809916C63.0848 0.91397 63.1138 1.00646 63.1195 1.10474C63.1311 1.2666 63.1195 1.42846 63.1195 1.59032C63.1195 27.3843 63.1195 53.1724 63.1195 78.9664C63.1195 79.1513 63.1195 79.3305 63.1195 79.5155C63.108 79.7063 63.0039 79.8335 62.8247 79.8392C62.4605 79.8508 62.0963 79.8739 61.709 79.8219C61.6859 79.7179 61.6512 79.6254 61.6454 79.5271C61.6339 79.3652 61.6454 79.2034 61.6454 79.0415C61.6454 53.2302 61.6454 27.4189 61.6454 1.60767C61.6454 1.36487 61.6454 1.12208 61.6454 0.815697L61.6396 0.804135Z" fill="#020304"/>
<path d="M208.431 47.8945C207.749 47.9639 206.76 47.9523 206.327 47.8772C206.24 47.802 206.257 47.6922 206.252 47.5939C206.252 47.4725 206.252 47.3511 206.252 47.2297C206.252 40.1887 206.252 33.1477 206.252 26.1067C206.252 25.887 206.229 25.6674 206.286 25.4592C206.72 25.3494 207.888 25.3436 208.408 25.4361C208.512 25.5575 208.483 25.702 208.483 25.8408C208.483 26.9969 208.483 28.1531 208.483 29.3093C208.483 29.5116 208.483 29.7139 208.483 29.9856C208.61 29.8411 208.662 29.7313 208.714 29.6156C209.073 28.8179 209.535 28.0779 210.084 27.4016C210.529 26.8466 211.05 26.361 211.662 25.9853C212.021 25.7656 212.379 25.5286 212.778 25.3783C213.466 25.1182 214.166 24.9448 214.911 24.9968C215.293 25.0199 215.68 25.0026 216.073 25.0026C216.108 25.1008 216.154 25.176 216.154 25.2511C216.16 25.8986 216.16 26.5518 216.154 27.1993C216.154 27.4363 216.021 27.5461 215.796 27.4478C215.478 27.3149 215.154 27.3149 214.842 27.3611C214.345 27.4363 213.848 27.5345 213.385 27.7484C212.587 28.1184 211.876 28.604 211.258 29.2341C210.495 30.003 209.865 30.8643 209.396 31.8412C209.021 32.6274 208.766 33.4541 208.581 34.3096C208.5 34.6738 208.483 35.0265 208.483 35.3907C208.483 39.3274 208.483 43.2641 208.483 47.2008C208.483 47.4205 208.506 47.646 208.437 47.8945H208.431Z" fill="#020304"/>
<path d="M126.136 16.5453C126.83 16.4702 127.818 16.4817 128.275 16.5742C128.287 16.6551 128.31 16.7534 128.31 16.8517C128.316 17.0135 128.31 17.1754 128.31 17.3373C128.31 27.2629 128.31 37.1885 128.31 47.1142C128.31 47.357 128.31 47.5998 128.31 47.8079C128.246 47.8599 128.217 47.9061 128.183 47.9119C127.518 47.9697 126.847 47.9293 126.159 47.935C126.13 47.8079 126.096 47.7154 126.09 47.6229C126.078 47.461 126.09 47.2992 126.09 47.1373C126.09 37.1885 126.09 27.2456 126.09 17.2968C126.09 17.0598 126.061 16.8112 126.136 16.5453Z" fill="#020304"/>
<path d="M221.941 47.8771C221.427 47.9581 220.357 47.9581 219.825 47.8771C219.808 47.7962 219.779 47.7037 219.773 47.6054C219.762 47.4436 219.773 47.2817 219.773 47.1199C219.773 40.1424 219.773 33.165 219.773 26.1876C219.773 25.9448 219.773 25.7078 219.779 25.4707C219.86 25.4303 219.912 25.384 219.97 25.384C220.577 25.3783 221.184 25.384 221.796 25.384C221.831 25.384 221.872 25.4129 221.941 25.4361C221.958 25.5112 221.987 25.6037 221.993 25.702C222.005 25.8407 221.993 25.9852 221.993 26.1298C221.993 33.1477 221.993 40.1655 221.993 47.1834C221.993 47.4031 222.028 47.6286 221.941 47.8829V47.8771Z" fill="#020304"/>
<path d="M86.3291 63.3525C86.5603 62.6183 86.78 61.9073 87.0112 61.202C87.0806 60.9939 87.1615 60.7858 87.2482 60.5777C87.306 60.4332 87.4216 60.358 87.5835 60.358C87.965 60.358 88.3523 60.358 88.757 60.358C88.7859 60.4794 88.8264 60.5719 88.8264 60.6644C88.8379 60.9477 88.7859 61.2425 88.8437 61.5142C88.994 62.2194 88.9304 62.9247 88.9593 63.63C88.9593 63.7282 88.9709 63.8323 88.9882 63.9306C89.0114 64.0693 89.0576 64.2023 89.0692 64.341C89.0807 64.5607 89.0692 64.7861 89.0692 65.0289C88.9593 65.0578 88.8668 65.0983 88.7743 65.0983C88.5316 65.1041 88.2945 65.0983 88.0749 65.0925C87.8783 64.8902 87.8552 64.6763 87.8552 64.4451C87.8552 63.6936 87.8552 62.9421 87.8436 62.1963C87.8436 62.0576 87.8436 61.9188 87.8147 61.7743C87.624 62.1732 87.4968 62.5836 87.3696 62.9941C87.1904 63.5722 87.0054 64.1445 86.8204 64.7225C86.8031 64.7803 86.7742 64.8382 86.7453 64.8902C86.6817 65.0058 86.595 65.0867 86.462 65.0867C86.2597 65.0867 86.0632 65.0867 85.8493 65.0867C85.5371 64.578 85.4851 63.9999 85.3059 63.4739C85.1324 62.9652 85.0226 62.4276 84.855 61.809C84.8318 61.9882 84.8145 62.0749 84.8087 62.1616C84.8087 62.4449 84.8087 62.7282 84.8029 63.0114C84.8029 63.1155 84.8087 63.2137 84.8029 63.3178C84.7683 63.5953 84.722 63.8728 84.6989 64.156C84.6758 64.4162 84.6873 64.6821 84.6758 64.948C84.6758 64.9827 84.6411 65.0174 84.6064 65.0867C84.3116 65.1388 83.9936 65.1272 83.6641 65.0867C83.5312 64.8092 83.5543 64.5086 83.6236 64.2543C83.7046 63.9537 83.693 63.6531 83.7104 63.3525C83.7277 62.9478 83.7104 62.5547 83.8029 62.1501C83.8838 61.8032 83.8318 61.4217 83.8375 61.0575C83.8452 60.595 84.088 60.3638 84.5659 60.3638C84.7683 60.3638 84.9706 60.3638 85.1729 60.3638C85.4041 60.3696 85.4735 60.4447 85.5429 60.6818C85.7799 61.5142 86.0227 62.3466 86.2655 63.1733C86.2828 63.2311 86.3059 63.2831 86.3348 63.3583L86.3291 63.3525Z" fill="#28566E"/>
<path d="M170.168 60.387C170.226 60.8552 170.295 61.2483 170.318 61.6529C170.347 62.0576 170.33 62.4623 170.336 62.8669C170.336 62.9652 170.33 63.075 170.353 63.1675C170.521 63.7629 170.44 64.3699 170.428 64.9769C170.428 64.9943 170.405 65.0116 170.365 65.0694C170.081 65.133 169.763 65.1041 169.417 65.081C169.393 64.9653 169.353 64.8555 169.347 64.7399C169.33 64.3988 169.37 64.052 169.249 63.7167C169.203 63.5895 169.232 63.4334 169.232 63.2947C169.232 62.8322 169.226 62.364 169.22 61.8842C169.07 61.9246 169.099 62.0403 169.075 62.1154C168.873 62.7282 168.63 63.3236 168.486 63.9595C168.422 64.2312 168.266 64.474 168.22 64.7572C168.191 64.9364 168.029 65.0636 167.821 65.081C167.7 65.0867 167.578 65.081 167.457 65.081C167.324 65.0752 167.226 65 167.174 64.8844C167.11 64.7341 167.058 64.5838 167.012 64.4277C166.827 63.8092 166.642 63.1964 166.463 62.5779C166.434 62.4796 166.445 62.3755 166.422 62.2773C166.387 62.1443 166.335 62.0171 166.266 61.8148C166.173 62.0056 166.202 62.1385 166.197 62.2599C166.197 62.3813 166.197 62.5027 166.197 62.6241C166.197 62.7686 166.197 62.9074 166.197 63.0519C166.197 63.1964 166.197 63.3352 166.197 63.4797C166.197 63.6011 166.197 63.7225 166.197 63.8439C166.197 63.9826 166.197 64.1271 166.173 64.2659C166.156 64.3873 166.11 64.4971 166.093 64.6185C166.069 64.7515 166.069 64.8902 166.058 65.0578C165.711 65.1214 165.399 65.1099 165.104 65.0752C164.965 64.9653 164.965 64.8324 165.012 64.7226C165.092 64.5087 165.098 64.289 165.104 64.0693C165.121 63.5664 165.075 63.0635 165.208 62.5605C165.272 62.312 165.243 62.0345 165.225 61.7743C165.197 61.3061 165.318 60.861 165.376 60.439C165.514 60.3176 165.642 60.3465 165.757 60.3465C166.064 60.3465 166.364 60.3465 166.671 60.358C166.798 60.3638 166.885 60.4621 166.925 60.5835C167.081 61.0633 167.254 61.5373 167.399 62.0229C167.52 62.4449 167.607 62.8843 167.705 63.3178C167.931 63.1502 167.948 62.8843 167.994 62.6704C168.156 61.9593 168.451 61.2945 168.648 60.5951C168.682 60.4679 168.763 60.3754 168.896 60.358C169.058 60.3407 169.22 60.3407 169.382 60.3465C169.642 60.3465 169.902 60.3234 170.185 60.3812L170.168 60.387Z" fill="#28566E"/>
<path d="M138.489 63.3409C138.547 63.127 138.559 62.9247 138.489 62.7455C138.403 62.5085 138.414 62.2657 138.414 62.0286C138.414 61.6645 138.414 61.3003 138.414 60.9361C138.414 60.832 138.414 60.7337 138.426 60.6297C138.443 60.4794 138.553 60.3696 138.709 60.3638C138.952 60.3522 139.189 60.3349 139.455 60.3869C139.478 60.4678 139.513 60.543 139.513 60.6123C139.513 62.0113 139.513 63.4103 139.513 64.8092C139.513 64.8844 139.489 64.9595 139.472 65.0578C139.38 65.0751 139.304 65.0983 139.223 65.0983C138.923 65.0925 138.616 65.1387 138.287 65.0578C137.674 64.0635 137.102 63.0287 136.466 61.8841C136.466 62.52 136.466 63.0287 136.466 63.5317C136.466 64.0346 136.483 64.5375 136.449 65.0115C136.368 65.0578 136.333 65.0867 136.298 65.0925C136.015 65.1214 135.738 65.1098 135.437 65.104C135.408 65.0058 135.368 64.9306 135.368 64.8555C135.368 63.497 135.368 62.1385 135.368 60.78C135.368 60.7395 135.368 60.6991 135.368 60.6586C135.385 60.5025 135.483 60.3753 135.628 60.3696C135.934 60.358 136.235 60.3464 136.541 60.3696C136.645 60.3753 136.767 60.4678 136.836 60.5545C136.981 60.7453 137.108 60.9592 137.229 61.1673C137.645 61.8783 138.056 62.5952 138.489 63.3409Z" fill="#28566E"/>
<path d="M186.95 60.3696H188.164C188.8 61.3118 189.355 62.3119 189.939 63.4623C189.939 62.994 189.939 62.6761 189.939 62.3524C189.939 62.0287 189.939 61.7049 189.939 61.3812C189.939 61.0633 189.91 60.7395 189.973 60.3985C190.251 60.3175 190.511 60.3464 190.771 60.3638C190.916 60.3696 191.02 60.4967 191.037 60.647C191.037 60.6875 191.043 60.728 191.043 60.7684C191.043 62.1269 191.043 63.4854 191.043 64.8381C191.043 64.8959 191.02 64.9537 191.002 65.0462C190.916 65.0636 190.823 65.0867 190.725 65.0983C190.627 65.1098 190.523 65.0983 190.418 65.0983C189.632 65.0925 189.765 65.1676 189.401 64.4971C189.17 64.0693 188.904 63.6646 188.667 63.2426C188.482 62.9073 188.314 62.5605 188.135 62.2194C188.089 62.1327 188.066 62.0287 187.933 61.994C187.915 62.046 187.886 62.098 187.886 62.1443C187.886 62.468 187.834 62.8091 187.91 63.1154C188.008 63.5201 187.979 63.919 187.991 64.3178C187.991 64.5549 188.014 64.7977 187.956 65.0578C187.615 65.1272 187.303 65.1098 186.962 65.0751C186.938 64.9942 186.898 64.9191 186.898 64.8497C186.898 63.4334 186.898 62.0113 186.898 60.595C186.898 60.5372 186.927 60.4794 186.956 60.3696H186.95Z" fill="#28566E"/>
<path d="M146.334 65.023V60.5776C146.496 60.4041 146.681 60.3463 146.889 60.3463C147.398 60.3463 147.9 60.329 148.409 60.3463C149.057 60.3695 149.629 60.6296 150.109 61.0458C150.3 61.2077 150.438 61.462 150.531 61.699C150.849 62.4968 150.762 63.2888 150.328 64.0229C150.143 64.3351 149.878 64.5894 149.542 64.7629C149.178 64.9478 148.814 65.0982 148.392 65.1039C148.172 65.1039 147.958 65.1906 147.739 65.208C147.276 65.2369 146.814 65.208 146.328 65.0172L146.334 65.023ZM147.455 64.2079C147.773 64.2773 148.033 64.2484 148.294 64.2368C148.392 64.2368 148.49 64.1906 148.577 64.1501C148.866 64.0287 149.08 63.8032 149.236 63.5431C149.404 63.2656 149.427 62.9361 149.479 62.6182C149.484 62.5777 149.479 62.5373 149.461 62.4968C149.375 62.2713 149.294 62.0459 149.195 61.8204C149.097 61.5776 148.883 61.4216 148.658 61.3638C148.392 61.2944 148.126 61.1614 147.831 61.2077C147.773 61.2192 147.698 61.1961 147.652 61.2308C147.571 61.2828 147.479 61.3522 147.45 61.4331C147.415 61.543 147.426 61.6701 147.426 61.7915C147.426 62.4621 147.426 63.1269 147.426 63.7975C147.426 63.9189 147.438 64.0345 147.45 64.2021L147.455 64.2079Z" fill="#28566E"/>
<path d="M211.882 62.7049C211.882 63.046 211.894 63.3871 211.755 63.7166C211.553 64.1906 211.304 64.6184 210.83 64.8612C210.223 65.1676 209.599 65.3237 208.911 65.1502C208.57 65.0635 208.269 64.9421 207.986 64.7398C207.836 64.63 207.708 64.5143 207.61 64.3583C207.13 63.601 206.968 62.8032 207.257 61.9419C207.321 61.7511 207.39 61.5603 207.489 61.3927C207.911 60.699 208.547 60.3695 209.344 60.3464C209.726 60.3348 210.102 60.3233 210.477 60.462C211.269 60.7568 211.859 61.5488 211.882 62.3986C211.882 62.4968 211.882 62.6009 211.882 62.6992V62.7049ZM210.651 62.7801C210.651 62.6876 210.668 62.5662 210.651 62.4448C210.57 61.8956 210.344 61.4447 209.778 61.2482C209.581 61.1788 209.385 61.1788 209.188 61.2655C208.876 61.4043 208.662 61.6297 208.523 61.9361C208.258 62.5084 208.338 63.0749 208.541 63.6357C208.633 63.8958 208.818 64.0808 209.078 64.1791C209.373 64.2889 209.674 64.2658 209.974 64.2022C210.044 64.1848 210.113 64.1212 210.171 64.0634C210.518 63.7166 210.697 63.3061 210.657 62.7801H210.651Z" fill="#28566E"/>
<path d="M107.012 63.3235C106.949 63.6357 106.989 63.919 106.978 64.1964C106.966 64.4739 107.007 64.7572 106.949 65.0115C106.885 65.052 106.85 65.0809 106.816 65.0867C106.492 65.1098 106.174 65.1214 105.827 65.0751C105.804 64.9942 105.764 64.9248 105.764 64.8497C105.764 63.4334 105.764 62.0113 105.764 60.595C105.908 60.4158 106.093 60.3522 106.301 60.3522C106.827 60.3522 107.359 60.3233 107.879 60.3522C108.33 60.3811 108.741 60.543 109.059 60.8898C109.411 61.2771 109.481 61.8899 109.18 62.3292C109.047 62.5258 108.862 62.6876 108.683 62.89C108.874 63.2021 109.099 63.5085 109.192 63.8901C109.278 64.26 109.4 64.6242 109.515 65.0173C109.434 65.0462 109.365 65.0867 109.296 65.0925C108.995 65.0925 108.689 65.1214 108.411 65.0751C108.18 64.8381 108.168 64.5433 108.07 64.2831C108.024 64.1502 107.984 64.0172 107.96 63.8785C107.926 63.6357 107.764 63.4854 107.585 63.3524C107.429 63.2368 107.244 63.2657 107.007 63.3178L107.012 63.3235ZM107.007 62.4102C107.278 62.4102 107.481 62.4275 107.677 62.4102C107.972 62.3755 108.18 62.1211 108.192 61.8263C108.203 61.5951 107.926 61.2598 107.677 61.2251C107.463 61.1962 107.238 61.1789 107.007 61.2656C106.972 61.6413 106.972 61.9939 107.007 62.4102Z" fill="#28566E"/>
<path d="M128.887 64.2657V65.023C128.806 65.0519 128.737 65.0982 128.662 65.0982C127.725 65.0982 126.795 65.0982 125.858 65.0982C125.8 65.0982 125.743 65.0693 125.656 65.0462C125.644 64.9537 125.621 64.8612 125.621 64.7629C125.621 63.4622 125.621 62.1673 125.621 60.8666C125.621 60.7684 125.61 60.6527 125.65 60.566C125.691 60.4851 125.777 60.4215 125.858 60.3695C125.904 60.3406 125.98 60.3521 126.037 60.3521C126.87 60.3521 127.702 60.3521 128.535 60.3521C128.592 60.3521 128.65 60.3753 128.731 60.3984C128.824 60.6701 128.777 60.9476 128.76 61.2539C128.662 61.2771 128.569 61.3175 128.477 61.3175C128.072 61.3233 127.668 61.3175 127.257 61.3175C127.142 61.3175 127.02 61.3349 126.881 61.3407C126.812 61.6008 126.829 61.8378 126.864 62.1037C126.957 62.1268 127.055 62.1615 127.147 62.1615C127.494 62.1673 127.835 62.1615 128.182 62.1615C128.592 62.1673 128.662 62.2425 128.662 62.6702C128.662 62.7916 128.65 62.913 128.645 63.0633C128.546 63.0865 128.454 63.1269 128.361 63.1327C127.997 63.1385 127.633 63.1327 127.263 63.1327C127.147 63.1327 127.026 63.15 126.887 63.1558C126.806 63.4333 126.835 63.6934 126.847 63.9536C126.852 64.1039 126.968 64.2022 127.136 64.2079C127.523 64.2137 127.905 64.2079 128.292 64.2137C128.471 64.2137 128.65 64.2311 128.882 64.2426L128.887 64.2657Z" fill="#28566E"/>
<path d="M75.1895 62.1499C75.7676 62.2309 76.2994 62.1384 76.8312 62.2135C76.9411 62.5083 76.889 62.7858 76.8717 63.0864C76.7734 63.1095 76.6809 63.15 76.5884 63.15C76.2647 63.1558 75.941 63.15 75.6173 63.15C75.4959 63.15 75.3802 63.1616 75.2357 63.1731C75.1432 63.5026 75.1837 63.8206 75.201 64.1674C75.3167 64.1906 75.4323 64.2252 75.5479 64.231C75.9352 64.2368 76.3167 64.231 76.704 64.231C76.8254 64.231 76.9411 64.2484 77.074 64.2541C77.1723 64.5258 77.1492 64.7744 77.1145 64.9883C77.0625 65.0403 77.0509 65.0635 77.0336 65.0692C77.0162 65.0808 76.9931 65.0808 76.9757 65.0808C76.0855 65.0808 75.1895 65.0924 74.2992 65.0924C74.2183 65.0924 74.1374 65.0808 74.0391 65.0692C74.016 64.9941 73.9697 64.9189 73.9697 64.8496C73.9697 63.4333 73.9697 62.0112 73.9697 60.5949C73.9697 60.5371 73.9929 60.4793 74.016 60.3868C74.3224 60.3001 74.6461 60.3521 74.964 60.3463C75.2877 60.3405 75.6115 60.3463 75.9352 60.3463H76.9295C76.9642 60.4562 77.0104 60.5429 77.0162 60.6354C77.022 60.8319 77.0162 61.0342 77.0046 61.2597C76.8833 61.2828 76.7908 61.3117 76.6983 61.3175C76.3341 61.3233 75.9699 61.3175 75.6057 61.3175C75.4901 61.3175 75.3687 61.3348 75.2762 61.3406C75.2357 61.41 75.201 61.4447 75.201 61.4736C75.201 61.6759 75.201 61.8725 75.201 62.1326L75.1895 62.1499Z" fill="#28566E"/>
<path d="M96.8389 65.0867H95.729C95.7001 65 95.6597 64.9307 95.6597 64.8555C95.6597 63.4565 95.6597 62.0576 95.6597 60.6586C95.6597 60.624 95.6828 60.5835 95.7001 60.5372C95.8331 60.4101 95.9949 60.3523 96.1857 60.3465C96.6713 60.3465 97.1627 60.3118 97.6425 60.3523C98.076 60.3927 98.5038 60.4852 98.868 60.8032C99.4287 61.2887 99.5559 62.5374 98.6368 63.1097C98.3998 63.26 98.1512 63.3872 97.8506 63.4045C97.55 63.4219 97.2609 63.5028 96.9257 63.5548C96.9083 63.63 96.8794 63.7225 96.8736 63.8207C96.8679 64.104 96.8736 64.3873 96.8736 64.6705C96.8736 64.7861 96.8563 64.9075 96.8447 65.081L96.8389 65.0867ZM96.9083 62.5085C97.2725 62.5721 97.602 62.5836 97.9084 62.3755C97.972 62.3293 98.0471 62.2599 98.0529 62.1906C98.1165 61.7975 98.1454 61.5142 97.6598 61.2945C97.4055 61.1789 97.1627 61.1847 96.8794 61.2714C96.8563 61.6125 96.8679 61.9304 96.8679 62.2541C96.8679 62.3293 96.891 62.4102 96.9083 62.5085Z" fill="#28566E"/>
<path d="M116.048 60.3695H118.956C119.095 60.6643 119.037 60.9591 119.008 61.2771C118.69 61.3754 118.39 61.3176 118.089 61.3291C117.788 61.3407 117.482 61.3291 117.176 61.3291C117.037 61.6066 117.089 61.8552 117.118 62.1384C117.413 62.2194 117.696 62.1673 117.973 62.1847C118.257 62.1962 118.54 62.1558 118.84 62.2194C118.956 62.5142 118.916 62.8032 118.875 63.1154C118.574 63.1905 118.291 63.1443 118.008 63.1559C117.725 63.1674 117.441 63.127 117.141 63.1905C117.031 63.468 117.077 63.7513 117.106 64.023C117.118 64.0981 117.228 64.1848 117.309 64.2195C117.395 64.2542 117.511 64.2369 117.609 64.2369C117.973 64.2369 118.337 64.2369 118.707 64.2369C118.829 64.2369 118.944 64.2542 119.077 64.26C119.187 64.5317 119.153 64.7803 119.118 65.0115C119.049 65.0462 119.014 65.0809 118.979 65.0866C118.337 65.1271 116.488 65.1098 116.037 65.0635C116.019 64.9999 115.973 64.9306 115.973 64.8554C115.973 63.4333 115.973 62.017 115.973 60.595C115.973 60.5371 116.002 60.4793 116.031 60.3695H116.048Z" fill="#28566E"/>
<path d="M178.279 61.3985V62.0633C178.371 62.1847 178.475 62.1789 178.574 62.1789C179.042 62.1789 179.504 62.1789 179.996 62.1789C180.03 62.2887 180.071 62.3812 180.077 62.4737C180.082 62.6703 180.071 62.8726 180.065 63.0981C179.481 63.2195 178.909 63.0981 178.331 63.179C178.209 63.468 178.244 63.7686 178.296 64.0577C178.308 64.1213 178.4 64.1964 178.464 64.208C178.603 64.2369 178.747 64.2311 178.886 64.2311C179.331 64.2311 179.776 64.2311 180.204 64.2311C180.285 64.4546 180.304 64.7205 180.262 65.0288C180.215 65.0462 180.163 65.0866 180.106 65.0924C179.111 65.1445 177.608 65.1156 177.175 65.0288C177.163 64.9653 177.14 64.8843 177.14 64.8092C177.099 63.7802 177.128 60.8724 177.186 60.41C177.25 60.3926 177.325 60.3522 177.4 60.3522C178.25 60.3522 179.105 60.3522 179.955 60.3522C180.013 60.3522 180.071 60.3811 180.117 60.3926C180.146 60.4389 180.181 60.4736 180.181 60.5083C180.204 60.751 180.215 60.9881 180.169 61.2598C180.077 61.2771 179.984 61.3176 179.886 61.3176C179.441 61.3233 178.996 61.3176 178.545 61.3233C178.452 61.3233 178.36 61.3696 178.273 61.3927L178.279 61.3985Z" fill="#28566E"/>
<path d="M221.467 60.6181C221.374 60.9013 221.288 61.1615 221.201 61.4274C220.952 61.3696 220.738 61.3291 220.524 61.2598C220.345 61.2019 220.166 61.1962 219.987 61.2366C219.871 61.2655 219.692 61.3985 219.501 61.5777C219.495 61.861 219.669 62.0113 219.906 62.1038C220.166 62.2078 220.432 62.3119 220.692 62.4101C220.75 62.4333 220.808 62.4448 220.86 62.4737C221.536 62.8379 221.773 63.3351 221.605 64.0866C221.53 64.4161 221.322 64.6646 221.033 64.8381C220.646 65.0693 220.218 65.1791 219.773 65.2138C219.241 65.2543 218.738 65.104 218.229 64.9074C218.282 64.682 218.322 64.4681 218.38 64.26C218.397 64.1848 218.455 64.1213 218.507 64.023C218.663 64.0634 218.813 64.1039 218.964 64.1386C219.12 64.1733 219.276 64.2195 219.432 64.2369C219.594 64.2542 219.756 64.2369 219.917 64.2369C220.085 64.2369 220.23 64.1617 220.374 64.023C220.38 63.971 220.397 63.89 220.403 63.8149C220.415 63.6125 220.339 63.4622 220.143 63.3813C219.958 63.3062 219.779 63.2079 219.588 63.1443C219.16 62.994 218.796 62.7512 218.495 62.4044C218.386 62.2772 218.316 62.1384 218.322 61.965C218.322 61.8436 218.322 61.7222 218.322 61.6008C218.305 61.1441 218.547 60.8262 218.912 60.6065C219.183 60.4389 219.495 60.329 219.831 60.3348C220.114 60.3348 220.397 60.3406 220.681 60.3348C220.952 60.329 221.201 60.3926 221.467 60.6065V60.6181Z" fill="#28566E"/>
<path d="M199.801 65.0982C199.488 65.0982 199.251 65.104 199.009 65.0982C198.933 65.0982 198.852 65.0751 198.754 65.0577C198.673 64.7456 198.719 64.445 198.714 64.1502C198.708 63.8496 198.714 63.5432 198.714 63.2426V61.3927C198.581 61.3696 198.465 61.3349 198.355 61.3233C198.055 61.306 197.754 61.3523 197.436 61.2887C197.326 61.0054 197.401 60.7221 197.373 60.4331C197.471 60.3984 197.54 60.3522 197.615 60.3522C198.731 60.3522 199.841 60.3522 200.957 60.3522C200.997 60.3522 201.032 60.3753 201.101 60.3926C201.217 60.6643 201.165 60.9534 201.136 61.2713C200.72 61.3812 200.315 61.2713 199.887 61.3523C199.87 61.4621 199.829 61.5777 199.829 61.6875C199.829 62.5951 199.829 63.5085 199.829 64.4161C199.829 64.6126 199.818 64.815 199.806 65.0867L199.801 65.0982Z" fill="#28566E"/>
<path d="M219.831 16.5453C220.456 16.4701 221.484 16.4817 221.912 16.5569C221.935 16.5915 221.97 16.6204 221.97 16.6551C222.011 17.1581 221.993 19.3895 221.953 19.8057C221.924 19.8288 221.895 19.875 221.86 19.8808C221.473 19.9271 220.299 19.9213 219.837 19.8635C219.814 19.8057 219.768 19.7305 219.768 19.6554C219.768 18.6842 219.768 17.713 219.768 16.7418C219.768 16.684 219.796 16.6262 219.82 16.5395L219.831 16.5453Z" fill="#020304"/>
<path d="M158.346 65.075C158.208 65.0866 158.086 65.104 157.971 65.104C157.728 65.104 157.485 65.1329 157.225 65.0693C157.208 64.9883 157.173 64.9132 157.173 64.838C157.173 63.416 157.173 61.9997 157.173 60.5776C157.173 60.5371 157.19 60.4967 157.202 60.4273C157.277 60.4042 157.369 60.3579 157.462 60.3579C157.739 60.3579 158.028 60.3232 158.329 60.3926C158.346 60.4735 158.381 60.5487 158.381 60.6238C158.381 62.0459 158.381 63.4622 158.381 64.8843C158.381 64.9247 158.364 64.9652 158.341 65.0808L158.346 65.075Z" fill="#28566E"/>
</svg>
