<svg width="201" height="72" viewBox="0 0 201 72" fill="none" xmlns="http://www.w3.org/2000/svg">
<g id="Logo Calegari">
<path id="Vector" d="M22.149 15.3832C21.4791 15.3361 7.12231 15.3466 6.67219 15.3937C6.66172 15.4722 6.63555 15.556 6.63032 15.6449C6.62508 15.8124 6.63032 15.9747 6.63032 16.1422C6.63032 22.4072 6.63032 28.6775 6.63032 34.9426C6.63032 35.2723 6.63032 35.6021 6.62508 35.9371C6.62508 36.1569 6.63032 36.3767 6.55704 36.5913C6.51517 36.7064 6.53087 36.8425 6.52564 36.9734C6.49423 37.837 6.16449 38.5645 5.58352 39.1978C4.97115 39.8573 4.20175 40.2027 3.34862 40.3964C2.72577 40.5429 2.09246 40.6424 1.44869 40.6267C1.09801 40.6162 0.752567 40.6267 0.401891 40.6267C0.297212 40.6267 0.187298 40.611 0.056449 40.5953C0.0407471 40.4906 0.0145773 40.4069 0.00934329 40.3179C0.00410932 40.1923 0.00934329 40.0614 0.00934329 39.9306C0.00934329 31.5143 0.00934329 23.0981 0.00934329 14.6767C0.00934329 14.4778 -0.0220605 14.2736 0.0302792 14.1219C0.134959 14.0015 0.22917 14.0119 0.318148 14.0119C0.464699 14.0119 0.61125 14.0119 0.757801 14.0119C15.5909 14.0119 30.4292 14.0119 45.2623 14.0119H45.9427C45.9741 14.1114 46.016 14.1951 46.016 14.2789C46.0264 14.6086 46.016 14.9384 46.016 15.289C45.8903 15.3152 45.7857 15.3571 45.6862 15.3571C44.9535 15.3623 44.2155 15.3623 43.4827 15.3675C43.2629 15.3675 43.0483 15.3675 42.8285 15.4304C42.64 15.4827 42.4254 15.4565 42.2266 15.4618C41.8078 15.4827 41.3839 15.4251 40.9704 15.5612C40.8867 15.5874 40.7872 15.5717 40.6982 15.5769C40.4418 15.5874 40.1801 15.5612 39.9393 15.6659C39.9079 15.6816 39.866 15.6816 39.8294 15.6816C39.3322 15.6921 38.8559 15.8124 38.3691 15.8857C37.9347 15.9538 37.5055 16.0323 37.0763 16.1317C36.6681 16.2259 36.2546 16.3097 35.8516 16.4196C34.8938 16.6656 33.9621 16.9953 33.0566 17.3879C32.0622 17.817 31.1148 18.3457 30.2303 18.9685C29.7488 19.3087 29.2934 19.6699 28.8747 20.0834C28.2466 20.701 27.6395 21.3395 27.1213 22.0566C26.8282 22.4596 26.5613 22.8731 26.331 23.3075C25.9594 24.0036 25.593 24.6997 25.3104 25.4377C24.9702 26.3275 24.7085 27.2382 24.4991 28.1646C24.3997 28.6095 24.3211 29.0596 24.2217 29.5045C24.1537 29.7871 24.2217 30.0959 24.0908 30.3681C24.1065 30.881 23.9338 31.3783 23.96 31.8964C23.9757 32.1895 23.9809 32.4826 23.8815 32.7705C23.8396 32.8856 23.8658 33.027 23.8658 33.1526C23.8658 33.8487 23.8605 34.5501 23.8605 35.2462C23.8605 42.1184 23.8605 48.9958 23.8605 55.868C23.8605 56.0878 23.8658 56.3024 23.871 56.4804C23.9705 56.6008 24.0699 56.5798 24.1589 56.5851C24.2897 56.5851 24.4154 56.5851 24.5462 56.5851C29.2725 56.5851 33.9935 56.5851 38.7198 56.5851C38.9187 56.5851 39.1176 56.5798 39.3479 56.5746C39.3688 56.4699 39.3897 56.3862 39.395 56.2972C39.4002 56.1297 39.395 55.9675 39.395 55.8C39.395 49.5349 39.395 43.2646 39.395 36.9996C39.395 36.6698 39.395 36.3401 39.4002 36.0051C39.4002 35.7853 39.395 35.5654 39.4683 35.3509C39.5101 35.2357 39.4997 35.0996 39.4997 34.9688C39.5311 34.1104 39.8556 33.3776 40.4418 32.7443C41.0541 32.0849 41.8235 31.7394 42.6767 31.5405C43.2995 31.3992 43.9328 31.2945 44.5766 31.3102C45.032 31.3207 45.4926 31.3102 45.9688 31.3102C45.995 31.4201 46.0212 31.5039 46.0317 31.5929C46.0421 31.7394 46.0317 31.886 46.0317 32.0325C46.0317 40.4121 46.0317 48.7917 46.0317 57.1765C46.0317 57.3963 46.0578 57.6162 45.995 57.8569C45.9008 57.8726 45.8171 57.8988 45.7333 57.904C45.5868 57.9093 45.4402 57.904 45.2937 57.904C30.4763 57.904 15.6589 57.904 0.841545 57.904C0.674058 57.904 0.511805 57.904 0.344317 57.904C0.134959 57.8936 0.0302792 57.8046 0.0250452 57.6057C0.0145773 57.2969 0.0250452 56.9829 0.0250452 56.6479C0.145427 56.6217 0.244872 56.5746 0.349551 56.5746C1.08231 56.5641 1.8203 56.5694 2.55305 56.5641C2.77288 56.5641 2.98747 56.5641 3.2073 56.4961C3.35908 56.449 3.53704 56.4752 3.69929 56.4647C4.15465 56.4385 4.61524 56.5066 5.06536 56.3652C5.1491 56.3391 5.24855 56.3548 5.33753 56.3548C5.59399 56.3443 5.85046 56.3705 6.09645 56.2658C6.12786 56.2501 6.16973 56.2553 6.20637 56.2501C6.70359 56.2396 7.17988 56.1245 7.66664 56.046C8.08013 55.9779 8.49361 55.9047 8.90186 55.8104C9.29441 55.7162 9.69219 55.6639 10.0795 55.554C11.545 55.1457 12.9791 54.6328 14.3138 53.8896C15.0518 53.4813 15.7584 53.026 16.4178 52.4973C17.0564 51.9896 17.6269 51.4191 18.1608 50.8172C18.8412 50.0478 19.4221 49.2052 19.888 48.2788C20.359 47.3419 20.8039 46.405 21.1075 45.4001C21.3482 44.615 21.521 43.8089 21.7146 43.0134C21.7931 42.6784 21.8088 42.3277 21.8559 41.9823C21.9135 41.5688 21.9868 41.1553 22.0391 40.7366C22.0653 40.5534 22.0653 40.3702 22.0705 40.187C22.081 39.8207 22.0653 39.4543 22.1647 39.0931C22.2014 38.9571 22.1752 38.8 22.1752 38.6535C22.1752 36.9263 22.1804 35.1991 22.1804 33.4719C22.1804 27.6464 22.1804 21.821 22.1804 15.9956C22.1804 15.7967 22.17 15.5978 22.1647 15.3675L22.149 15.3832Z" fill="white"/>
<path id="Vector_2" d="M158.169 25.6578C158.169 25.103 158.169 24.5534 158.169 24.0038C158.169 23.4543 158.148 22.9047 158.185 22.3813C158.242 22.3394 158.269 22.3028 158.3 22.3028C158.797 22.2557 159.755 22.2766 160.137 22.3394C160.153 22.4127 160.174 22.5017 160.179 22.5854C160.189 22.6954 160.179 22.8053 160.179 22.9152C160.179 29.3477 160.179 35.775 160.179 42.2076C160.179 43.1654 160.043 44.1023 159.745 45.0078C159.441 45.9185 158.996 46.7559 158.279 47.4259C157.96 47.7242 157.656 48.0435 157.3 48.3104C156.709 48.7553 156.055 49.0693 155.369 49.331C154.699 49.5875 153.998 49.7026 153.302 49.8597C153.213 49.8806 153.118 49.8701 153.029 49.8754C152.757 49.8911 152.485 49.8754 152.213 49.9591C152.061 50.0062 151.883 49.98 151.721 49.98C151.428 49.98 151.135 49.98 150.836 49.98C150.617 49.98 150.397 49.9957 150.182 49.912C150.098 49.8806 149.999 49.8911 149.91 49.8858C149.01 49.8335 148.146 49.6137 147.303 49.2944C146.628 49.0432 146 48.703 145.398 48.3209C145.121 48.1482 144.87 47.9283 144.618 47.7137C144.399 47.5201 144.194 47.3055 143.985 47.0961C143.299 46.4052 142.813 45.594 142.572 44.6519C142.478 44.2855 142.394 43.9034 142.404 43.5161C142.404 43.448 142.425 43.3748 142.436 43.3224C142.488 43.291 142.52 43.2544 142.551 43.2544C143.064 43.2439 143.577 43.2387 144.095 43.2387C144.268 43.2387 144.367 43.3434 144.393 43.5056C144.393 43.5423 144.404 43.5789 144.404 43.6155C144.414 44.5681 144.864 45.3323 145.477 46.0127C146.194 46.8135 147.105 47.3055 148.094 47.6771C148.659 47.8917 149.245 48.0016 149.847 48.1063C150.653 48.2476 151.459 48.2319 152.26 48.1691C153.15 48.101 154.029 47.8812 154.846 47.4887C155.327 47.2584 155.772 46.9653 156.175 46.6198C156.782 46.1017 157.264 45.4788 157.599 44.7513C157.881 44.1337 158.064 43.4847 158.08 42.7938C158.08 42.7205 158.07 42.642 158.091 42.574C158.227 42.1081 158.169 41.6266 158.174 41.1503C158.18 40.36 158.174 39.5697 158.174 38.7793V38.3397C158.038 38.3554 158.012 38.4496 157.97 38.5281C157.693 39.0934 157.285 39.5592 156.861 40.0198C155.992 40.9619 154.903 41.5586 153.72 41.9825C153.333 42.1239 152.914 42.2024 152.496 42.2704C151.967 42.3594 151.438 42.3594 150.91 42.3594C150.266 42.3646 149.633 42.2547 149.01 42.1134C148.094 41.904 147.241 41.5219 146.456 41.0038C146.183 40.8258 145.927 40.606 145.686 40.3862C145.032 39.7895 144.456 39.13 143.99 38.3763C143.488 37.5598 143.121 36.6858 142.86 35.7646C142.734 35.3249 142.609 34.88 142.556 34.4351C142.509 34.0007 142.399 33.5715 142.404 33.1267C142.415 32.5038 142.399 31.8757 142.404 31.2529C142.415 29.7769 142.708 28.3585 143.247 26.9767C143.608 26.0608 144.09 25.2234 144.713 24.4749C145.466 23.5642 146.367 22.8 147.45 22.3028C148.047 22.0306 148.675 21.8317 149.324 21.7009C150.172 21.5229 151.03 21.4601 151.888 21.5125C152.359 21.5386 152.825 21.6433 153.291 21.7532C153.757 21.8631 154.202 22.0306 154.636 22.2191C155.228 22.4808 155.767 22.8262 156.248 23.2554C156.698 23.6584 157.143 24.0771 157.473 24.59C157.651 24.8674 157.808 25.1553 157.97 25.4432C158.017 25.5217 158.038 25.6159 158.174 25.6421L158.169 25.6578ZM144.414 31.8914C144.419 32.4201 144.404 32.9487 144.498 33.4773C144.556 33.8175 144.55 34.1682 144.634 34.5084C144.744 34.969 144.828 35.4401 144.99 35.885C145.283 36.6962 145.66 37.4709 146.173 38.1722C146.607 38.7689 147.115 39.2923 147.722 39.7162C148.256 40.0878 148.837 40.3443 149.455 40.5327C150.072 40.7211 150.716 40.7159 151.349 40.8049C151.386 40.8049 151.428 40.8154 151.459 40.8049C151.847 40.6845 152.255 40.7002 152.647 40.6112C154.019 40.2972 155.071 39.5016 155.945 38.4548C156.552 37.7221 157.039 36.9003 157.405 36.0158C157.656 35.4034 157.813 34.7649 157.955 34.1263C158.064 33.6239 158.096 33.111 158.091 32.598C158.091 32.4881 158.096 32.373 158.127 32.2735C158.195 32.0537 158.195 31.8443 158.127 31.6245C158.101 31.5408 158.091 31.4413 158.096 31.3523C158.106 30.876 158.059 30.3998 157.97 29.9339C157.866 29.3582 157.724 28.7929 157.525 28.2434C157.353 27.7566 157.117 27.3012 156.882 26.8459C156.599 26.2859 156.233 25.7782 155.824 25.3123C155.133 24.5115 154.312 23.873 153.302 23.5066C152.82 23.3287 152.333 23.1821 151.81 23.1926C151.443 23.1978 151.077 23.1926 150.706 23.1926C149.962 23.1926 149.261 23.4019 148.586 23.7003C148.078 23.9253 147.638 24.2394 147.214 24.6057C146.764 24.9931 146.403 25.4484 146.053 25.9142C145.754 26.312 145.529 26.7569 145.325 27.207C144.985 27.9607 144.744 28.7406 144.618 29.5623C144.566 29.9078 144.556 30.2532 144.488 30.5934C144.446 30.8132 144.425 31.0278 144.42 31.2477C144.42 31.4675 144.42 31.6873 144.42 31.9071L144.414 31.8914Z" fill="white"/>
<path id="Vector_3" d="M87.7462 33.1263C88.3848 33.0688 89.0024 33.1106 89.6252 33.0949C89.7561 33.3985 89.7194 33.6811 89.6723 33.9376C89.5677 34.529 89.4473 35.1205 89.2903 35.7015C89.1751 36.1306 89.0286 36.5389 88.8611 36.9419C88.5156 37.7741 88.076 38.5644 87.5107 39.2658C87.1234 39.7473 86.7361 40.2341 86.2284 40.6214C85.8201 40.9302 85.4538 41.2913 85.0246 41.574C83.8312 42.3591 82.5384 42.8877 81.1357 43.1546C80.4867 43.275 79.8429 43.3797 79.1782 43.3797C78.9061 43.3797 78.6339 43.4582 78.3617 43.4582C78.0896 43.4582 77.8174 43.3902 77.5452 43.3797C76.2158 43.3274 74.9492 43.0186 73.7192 42.5056C72.9184 42.1706 72.1909 41.7205 71.4843 41.2285C71.0917 40.9564 70.7149 40.6685 70.3747 40.3335C69.9978 39.9567 69.6105 39.5851 69.2494 39.1978C68.6318 38.5435 68.0874 37.8265 67.6216 37.0623C67.3547 36.6226 67.1139 36.1673 66.8784 35.7119C66.2608 34.5186 65.8525 33.252 65.6118 31.9278C65.5228 31.441 65.3867 30.9647 65.4024 30.4675C65.2035 29.3736 65.3291 28.2692 65.3082 27.1701C65.4233 26.7095 65.3972 26.228 65.4862 25.7621C65.5699 25.333 65.6275 24.8985 65.7321 24.4746C65.9206 23.6895 66.1666 22.9306 66.4701 22.1821C66.8522 21.2243 67.3442 20.3241 67.9304 19.4814C68.234 19.047 68.5794 18.6387 68.8882 18.2095C69.1342 17.8641 69.4378 17.5657 69.7309 17.2674C70.427 16.5556 71.1912 15.938 72.0234 15.3884C73.0597 14.7028 74.185 14.2369 75.3784 13.9177C75.9436 13.7659 76.5246 13.7083 77.1003 13.5932C77.205 13.5722 77.3202 13.5827 77.4301 13.5827C78.0739 13.5827 78.7176 13.5932 79.3614 13.5827C79.8063 13.5722 80.2355 13.6717 80.6699 13.7345C81.1148 13.7973 81.5649 13.8915 82.0098 14.0119C83.0618 14.2997 84.0458 14.7289 84.9722 15.2994C85.8254 15.8176 86.5948 16.4404 87.2647 17.1732C87.7986 17.7542 88.2696 18.3822 88.6412 19.0836C89.1018 19.9472 89.4159 20.8632 89.6619 21.8C89.709 21.978 89.7351 22.1559 89.6619 22.3601C89.6043 22.3758 89.5362 22.4124 89.4682 22.4124C89.0076 22.4176 88.547 22.4229 88.0917 22.4124C87.8195 22.4124 87.7462 22.3496 87.6573 22.0827C87.6259 21.9989 87.6154 21.9047 87.5892 21.8157C87.2804 20.5596 86.6733 19.4709 85.7678 18.5445C85.2392 18.0054 84.6739 17.5134 84.0354 17.1104C83.0985 16.519 82.104 16.0636 81.0206 15.8124C80.5024 15.692 79.9895 15.5559 79.4504 15.5768C78.9846 15.4408 78.503 15.4879 78.0267 15.4826C77.8436 15.4826 77.6604 15.4722 77.4824 15.5507C77.4196 15.5768 77.3411 15.5768 77.2678 15.5821C76.2106 15.6501 75.2213 15.9537 74.2688 16.3986C73.4313 16.7911 72.6881 17.3145 71.971 17.8903C71.1859 18.5183 70.5788 19.2877 69.9664 20.0676C69.4901 20.6747 69.0976 21.3394 68.7626 22.0303C68.2392 23.1242 67.8257 24.2495 67.6164 25.4533C67.5222 25.9924 67.3966 26.5263 67.407 27.0811C67.2395 27.7877 67.3285 28.5047 67.3128 29.2166C67.3128 29.3998 67.3023 29.5829 67.3756 29.7609C67.407 29.8446 67.407 29.9389 67.407 30.0331C67.428 30.9542 67.6478 31.8388 67.8781 32.7233C68.077 33.4875 68.3805 34.215 68.7207 34.9216C69.1342 35.78 69.6472 36.5808 70.2386 37.3345C70.7672 37.9992 71.3587 38.6011 71.992 39.1611C72.7352 39.8154 73.5465 40.3754 74.4834 40.7418C75.0486 40.9616 75.6087 41.1762 76.2001 41.307C76.6083 41.396 77.0218 41.485 77.4458 41.4902C77.7389 41.4902 78.032 41.4745 78.3198 41.5687C78.4141 41.6001 78.5344 41.5583 78.6444 41.5478C78.7909 41.5321 78.9322 41.4955 79.0788 41.4955C80.382 41.4902 81.6172 41.1657 82.7844 40.6214C83.5329 40.2707 84.2238 39.8154 84.8204 39.2396C85.3072 38.7686 85.7835 38.287 86.1656 37.7165C86.7884 36.7954 87.2176 35.7904 87.4584 34.7122C87.5683 34.215 87.6416 33.7073 87.741 33.142L87.7462 33.1263Z" fill="white"/>
<path id="Vector_4" d="M123.008 32.5768C123.029 33.1368 122.971 33.6288 123.091 34.1208C123.165 34.4349 123.159 34.7698 123.217 35.0944C123.468 36.4866 123.997 37.7584 124.813 38.9099C125.384 39.716 126.127 40.3336 126.985 40.8151C127.483 41.0925 128.027 41.2495 128.587 41.3751C128.927 41.4484 129.273 41.4903 129.618 41.4903C129.728 41.4903 129.833 41.5269 129.943 41.5374C130.047 41.5478 130.157 41.5531 130.267 41.5426C130.429 41.5321 130.592 41.485 130.754 41.4903C131.403 41.4955 132.026 41.349 132.633 41.1501C133.313 40.925 133.968 40.6371 134.554 40.2184C135.077 39.8468 135.564 39.4438 135.983 38.9466C136.428 38.4232 136.789 37.8579 137.077 37.2403C137.145 37.0937 137.197 36.9367 137.249 36.8059C137.668 36.7274 138.547 36.7169 139.144 36.7745C139.296 36.9262 139.249 37.1251 139.202 37.2874C138.956 38.1353 138.642 38.9518 138.113 39.6741C137.731 40.1975 137.281 40.6581 136.804 41.082C136.365 41.4693 135.883 41.8043 135.37 42.0922C134.842 42.3853 134.297 42.6522 133.727 42.8563C133.209 43.0395 132.675 43.1494 132.141 43.2698C131.727 43.364 131.309 43.3797 130.885 43.3902C130.738 43.3902 130.597 43.4268 130.45 43.4478C130.215 43.4844 129.979 43.5001 129.744 43.4321C129.639 43.4007 129.529 43.385 129.419 43.3902C128.844 43.4164 128.289 43.296 127.739 43.1547C126.828 42.9244 125.96 42.5737 125.19 42.0346C124.327 41.4327 123.594 40.6947 122.987 39.8259C122.202 38.7006 121.657 37.4653 121.349 36.1359C121.244 35.6753 121.165 35.2043 121.092 34.7384C121.019 34.2465 121.014 33.7545 120.998 33.2625C120.993 33.0793 121.003 32.8961 120.94 32.7181C120.904 32.6187 120.893 32.4931 120.919 32.3936C121.034 32.0325 120.993 31.6661 120.998 31.2997C121.014 30.4937 121.155 29.7034 121.338 28.9183C121.537 28.0599 121.804 27.2225 122.207 26.4426C122.568 25.7412 122.997 25.087 123.5 24.4746C123.981 23.8832 124.552 23.4017 125.159 22.9672C125.729 22.5642 126.347 22.2293 127.012 22.0251C127.603 21.8419 128.205 21.7006 128.823 21.6169C129.409 21.5331 129.99 21.5436 130.576 21.5331C130.796 21.5331 131.016 21.5227 131.23 21.6064C131.314 21.6378 131.413 21.6326 131.502 21.6326C131.926 21.6378 132.335 21.7477 132.738 21.8524C133.397 22.0199 134.025 22.2711 134.622 22.5956C135.14 22.873 135.637 23.1818 136.056 23.6006C136.145 23.6895 136.25 23.768 136.349 23.8465C136.407 23.8937 136.475 23.9251 136.522 23.9826C136.972 24.5322 137.448 25.0661 137.825 25.6784C138.364 26.563 138.72 27.5208 138.95 28.5205C139.113 29.2114 139.254 29.9127 139.233 30.635C139.228 30.8705 139.254 31.1061 139.296 31.3416C139.348 31.6609 139.317 32.0011 139.306 32.3308C139.306 32.4564 139.181 32.5559 139.039 32.5611C138.872 32.5716 138.71 32.5663 138.542 32.5663C133.58 32.5663 128.618 32.5663 123.657 32.5663C123.458 32.5663 123.259 32.5768 123.002 32.582L123.008 32.5768ZM137.197 30.5408C137.26 29.9808 137.213 29.494 137.103 29.0072C136.941 28.2902 136.71 27.6045 136.328 26.966C136.046 26.4897 135.716 26.0605 135.355 25.6418C135.041 25.2807 134.679 24.9771 134.297 24.6945C133.444 24.0664 132.507 23.6215 131.461 23.4488C131.047 23.3807 130.634 23.297 130.21 23.3022C129.901 23.3022 129.592 23.3441 129.283 23.3807C128.681 23.454 128.106 23.6058 127.535 23.8151C126.562 24.1658 125.797 24.8148 125.054 25.4952C124.881 25.6523 124.745 25.8564 124.599 26.0396C124.206 26.5263 123.892 27.055 123.625 27.6202C123.316 28.2745 123.165 28.9654 123.023 29.6615C122.966 29.9389 122.955 30.2372 123.034 30.5146C123.62 30.5827 134.208 30.6088 136.883 30.5565C136.972 30.5565 137.061 30.5408 137.181 30.5303L137.197 30.5408Z" fill="white"/>
<path id="Vector_5" d="M183.135 41.7523C183.135 42.0402 183.135 42.281 183.135 42.5165C183.135 42.663 183.046 42.7625 182.916 42.7991C182.513 42.9143 182.115 43.0556 181.68 43.0399C181.55 43.0346 181.424 43.0399 181.293 43.0399C180.634 43.0556 180.095 42.8043 179.608 42.3595C179.084 41.8779 178.791 41.2865 178.613 40.6218C178.571 40.4648 178.577 40.2973 178.561 40.1036C178.519 40.1612 178.482 40.1926 178.462 40.2345C178.153 40.805 177.76 41.2865 177.252 41.7052C176.384 42.4275 175.379 42.8462 174.311 43.1341C173.746 43.2859 173.17 43.3853 172.579 43.3749C172.437 43.3749 172.291 43.422 172.144 43.4272C171.961 43.4377 171.778 43.4429 171.6 43.4272C171.438 43.4167 171.275 43.3644 171.113 43.3696C170.522 43.3853 169.951 43.244 169.386 43.0974C168.601 42.8933 167.857 42.5741 167.188 42.1135C166.324 41.5116 165.565 40.784 165.047 39.8524C164.79 39.3918 164.612 38.8841 164.565 38.345C164.544 38.1252 164.471 37.9106 164.476 37.696C164.492 36.5288 164.837 35.4768 165.581 34.5504C166.083 33.9275 166.69 33.4303 167.334 32.9854C168.203 32.3887 169.166 31.991 170.197 31.7607C170.694 31.6508 171.192 31.5094 171.71 31.5304C172.113 31.4048 172.547 31.478 172.955 31.3472C173.023 31.3262 173.102 31.3315 173.175 31.3262C174.091 31.2634 174.981 31.0593 175.86 30.8133C176.337 30.6825 176.808 30.5412 177.268 30.358C177.65 30.2062 177.985 29.9864 178.304 29.7456C178.545 29.5676 178.681 29.2955 178.687 28.9867C178.697 28.3429 178.718 27.6991 178.681 27.0553C178.655 26.6418 178.514 26.2441 178.304 25.8672C177.954 25.2496 177.409 24.8518 176.829 24.5064C176.342 24.2185 175.834 23.9568 175.274 23.826C175.117 23.7893 174.955 23.7632 174.792 23.7213C174.185 23.5643 173.573 23.5172 172.945 23.5067C172.092 23.491 171.265 23.6218 170.459 23.8678C169.794 24.072 169.166 24.3703 168.616 24.8204C168.36 25.0298 168.124 25.2496 167.92 25.5113C167.543 25.9981 167.365 26.5319 167.36 27.1391C167.36 27.4479 167.386 27.7619 167.339 28.0498C167.287 28.0864 167.261 28.1283 167.235 28.1283C166.669 28.1702 166.104 28.1649 165.513 28.1283C165.492 28.0288 165.46 27.9399 165.46 27.8561C165.455 27.4688 165.466 27.0815 165.46 26.6994C165.434 25.8672 165.759 25.1554 166.272 24.5325C166.884 23.7893 167.648 23.2136 168.527 22.8106C169.145 22.5279 169.784 22.3081 170.448 22.1668C171.076 22.0307 171.704 21.9208 172.348 21.9417C172.678 21.9522 173.008 21.9522 173.343 21.9417C174.494 21.9051 175.593 22.1406 176.677 22.5018C177.483 22.7687 178.236 23.1613 178.906 23.6689C179.357 24.0092 179.76 24.4174 180.089 24.8885C180.45 25.4066 180.613 25.9667 180.607 26.5895C180.607 29.3635 180.607 32.1375 180.607 34.9167C180.607 36.1677 180.607 37.4186 180.607 38.6643C180.607 39.1981 180.691 39.7163 180.817 40.2345C180.942 40.7474 181.194 41.187 181.591 41.5325C181.911 41.8099 182.282 41.9146 182.706 41.8099C182.827 41.7785 182.957 41.768 183.146 41.7366L183.135 41.7523ZM178.692 31.5932C178.435 31.7188 178.247 31.8235 178.043 31.9125C177.095 32.3259 176.091 32.5091 175.086 32.6818C174.777 32.7342 174.468 32.7604 174.164 32.8179C173.929 32.865 173.693 32.8807 173.458 32.9017C173.222 32.9226 172.987 33.0011 172.756 32.9959C172.259 32.9749 171.778 33.1477 171.281 33.1267C171.244 33.1267 171.207 33.132 171.171 33.1424C170.495 33.3099 169.825 33.4826 169.208 33.8281C168.512 34.2154 167.894 34.6865 167.402 35.3145C166.669 36.2514 166.408 37.293 166.696 38.4602C166.863 39.1353 167.214 39.7111 167.69 40.2083C167.852 40.381 168.051 40.5119 168.24 40.6637C168.815 41.1347 169.464 41.4645 170.176 41.6686C170.705 41.8204 171.26 41.8151 171.799 41.9093C171.888 41.925 171.982 41.8936 172.071 41.8832C172.181 41.8675 172.285 41.8308 172.395 41.8256C172.709 41.8204 173.013 41.7785 173.317 41.7157C173.966 41.5796 174.573 41.3441 175.154 41.0248C175.604 40.7736 175.996 40.4543 176.405 40.135C176.881 39.7686 177.232 39.3081 177.587 38.8475C177.985 38.3345 178.236 37.7379 178.435 37.1307C178.598 36.6335 178.713 36.1153 178.702 35.571C178.676 34.4352 178.692 33.2942 178.692 32.1532C178.692 31.991 178.692 31.8235 178.692 31.6036V31.5932Z" fill="white"/>
<path id="Vector_6" d="M94.7499 28.0443C94.6975 28.1019 94.6871 28.1228 94.6714 28.1281C94.5824 28.1385 94.4882 28.1542 94.3992 28.1595C93.9229 28.1595 93.4466 28.1595 92.9442 28.1595C92.918 28.0391 92.8761 27.9396 92.8709 27.835C92.8604 27.4686 92.8761 27.1022 92.8657 26.7306C92.8447 26.0449 93.0645 25.4378 93.4362 24.8725C93.7607 24.3753 94.1899 23.9723 94.6504 23.6059C95.5873 22.8627 96.676 22.444 97.8275 22.1718C98.4712 22.02 99.1203 21.9206 99.785 21.9415C100.099 21.952 100.408 21.952 100.722 21.9415C101.931 21.8944 103.082 22.1561 104.213 22.5486C104.982 22.8156 105.699 23.1924 106.338 23.6897C106.725 23.9932 107.081 24.3544 107.39 24.7364C107.819 25.2808 108.028 25.9141 108.023 26.6259C108.013 30.6508 108.023 34.6758 108.018 38.7007C108.018 39.2555 108.107 39.7946 108.243 40.3232C108.374 40.81 108.636 41.2287 109.018 41.5637C109.238 41.7573 109.504 41.8097 109.766 41.8882C109.829 41.9091 109.907 41.8777 109.981 41.862C110.153 41.8254 110.326 41.7887 110.525 41.7416C110.572 42.0295 110.551 42.2807 110.546 42.5372C110.546 42.6628 110.462 42.7518 110.358 42.7832C109.976 42.8983 109.593 43.0396 109.185 43.0344C109.002 43.0344 108.819 43.0344 108.636 43.0344C108.039 43.0344 107.536 42.8094 107.097 42.4116C106.594 41.9562 106.238 41.4119 106.087 40.7472C106.04 40.543 106.003 40.3337 105.966 40.1243C105.794 40.386 105.626 40.6477 105.453 40.9042C104.982 41.5898 104.307 42.0243 103.601 42.422C102.91 42.8146 102.156 43.0606 101.387 43.2228C100.963 43.3118 100.528 43.3956 100.083 43.3799C99.8321 43.3746 99.5756 43.4584 99.3244 43.4584C99.0889 43.4584 98.8533 43.3799 98.6178 43.3799C98.063 43.3799 97.5291 43.2856 96.9953 43.1496C95.7025 42.8303 94.5719 42.2336 93.6194 41.2967C93.2268 40.9094 92.8604 40.5012 92.5726 40.0249C92.3161 39.5905 92.0492 38.8734 91.9968 38.3814C91.9706 38.1459 91.8974 37.9104 91.9026 37.6801C91.9288 36.5129 92.2533 35.4452 93.0331 34.5449C93.2006 34.3513 93.342 34.1314 93.5304 33.9639C94.373 33.2259 95.2785 32.5874 96.341 32.1739C97.0633 31.8913 97.8118 31.75 98.555 31.5668C98.5916 31.5563 98.6283 31.5615 98.6649 31.5563C99.1203 31.5144 99.5756 31.4935 100.031 31.4307C101.224 31.2684 102.418 31.1062 103.574 30.7398C103.941 30.6247 104.302 30.5043 104.663 30.3734C105.05 30.2321 105.375 29.9966 105.705 29.7715C105.961 29.5988 106.092 29.3162 106.102 29.0178C106.123 28.3584 106.129 27.6936 106.102 27.0342C106.081 26.5526 105.862 26.1182 105.616 25.7047C105.396 25.3331 105.071 25.061 104.726 24.8202C103.967 24.2968 103.15 23.9095 102.234 23.7106C101.36 23.5222 100.492 23.4855 99.6122 23.5274C99.1203 23.5483 98.6387 23.6687 98.1624 23.7891C97.257 24.0194 96.4405 24.4276 95.7496 25.04C95.1424 25.5844 94.7604 26.2595 94.7813 27.1127C94.7813 27.3534 94.7813 27.589 94.7813 27.8297C94.7813 27.9187 94.7656 28.0024 94.7604 28.0443H94.7499ZM106.097 31.593C105.872 31.7081 105.684 31.8128 105.49 31.9018C105.124 32.0692 104.742 32.1896 104.349 32.2943C103.344 32.556 101.748 32.8334 100.795 32.8962C100.738 32.8962 100.68 32.891 100.633 32.9067C100.35 33.0166 100.052 32.98 99.764 33.0061C99.4709 33.0323 99.1831 33.0637 98.8952 33.1108C98.5707 33.1631 98.2462 33.2207 97.9321 33.294C97.4663 33.4039 97.0424 33.6185 96.6132 33.8331C96.0636 34.1053 95.2052 34.7543 94.7342 35.4085C94.3521 35.9371 94.0904 36.5286 94.0276 37.1724C93.9334 38.1354 94.1846 39.0147 94.7813 39.7998C94.9959 40.0825 95.2576 40.3023 95.5193 40.5326C96.0374 40.9879 96.6184 41.3281 97.2622 41.5532C97.6757 41.6997 98.0944 41.8306 98.5445 41.8149C98.6701 41.8149 98.8062 41.8201 98.9266 41.8568C99.1464 41.9196 99.3558 41.9248 99.5756 41.8515C99.6594 41.8254 99.7588 41.8097 99.8478 41.8201C100.204 41.8568 100.544 41.7626 100.879 41.684C101.47 41.5532 102.03 41.3281 102.559 41.035C103.025 40.7733 103.428 40.4279 103.852 40.1139C104.323 39.7632 104.663 39.3183 104.998 38.8629C105.37 38.3605 105.647 37.7952 105.835 37.1985C105.992 36.6961 106.134 36.1884 106.123 35.644C106.102 34.4664 106.118 33.294 106.118 32.1163C106.118 31.9541 106.108 31.7918 106.102 31.5982L106.097 31.593Z" fill="white"/>
<path id="Vector_7" d="M55.8086 0.0321041C56.018 0.0216361 56.1593 0.00593421 56.3058 0.00593421C56.5623 0.00593421 56.8187 -0.0202356 57.0962 0.037338C57.1171 0.13155 57.1433 0.215293 57.1485 0.304271C57.159 0.450822 57.1485 0.597373 57.1485 0.743924C57.1485 24.0979 57.1485 47.4467 57.1485 70.8006C57.1485 70.9681 57.1485 71.1304 57.1485 71.2979C57.138 71.4706 57.0438 71.5857 56.8816 71.591C56.5518 71.6014 56.2221 71.6224 55.8714 71.5753C55.8505 71.481 55.8191 71.3973 55.8138 71.3083C55.8034 71.1618 55.8138 71.0152 55.8138 70.8687C55.8138 47.499 55.8138 24.1293 55.8138 0.759626C55.8138 0.539799 55.8138 0.319972 55.8138 0.042572L55.8086 0.0321041Z" fill="white"/>
<path id="Vector_8" d="M188.715 42.6679C188.097 42.7307 187.202 42.7202 186.809 42.6522C186.731 42.5841 186.747 42.4847 186.741 42.3957C186.741 42.2858 186.741 42.1759 186.741 42.0659C186.741 35.691 186.741 29.316 186.741 22.941C186.741 22.7421 186.721 22.5432 186.773 22.3548C187.165 22.2554 188.223 22.2501 188.694 22.3339C188.788 22.4438 188.762 22.5746 188.762 22.7003C188.762 23.747 188.762 24.7938 188.762 25.8406C188.762 26.0238 188.762 26.207 188.762 26.453C188.877 26.3222 188.924 26.2227 188.971 26.118C189.296 25.3957 189.714 24.7258 190.212 24.1134C190.615 23.611 191.086 23.1713 191.64 22.8311C191.965 22.6322 192.289 22.4176 192.651 22.2815C193.273 22.046 193.907 21.889 194.582 21.9361C194.927 21.957 195.278 21.9413 195.634 21.9413C195.665 22.0303 195.707 22.0983 195.707 22.1664C195.712 22.7526 195.712 23.344 195.707 23.9302C195.707 24.1448 195.587 24.2443 195.383 24.1553C195.095 24.0349 194.802 24.0349 194.519 24.0768C194.069 24.1448 193.619 24.2338 193.2 24.4275C192.478 24.7624 191.834 25.2021 191.274 25.7726C190.583 26.4687 190.013 27.2486 189.589 28.1331C189.249 28.8449 189.018 29.5934 188.851 30.368C188.777 30.6978 188.762 31.017 188.762 31.3468C188.762 34.9111 188.762 38.4754 188.762 42.0398C188.762 42.2387 188.783 42.4428 188.72 42.6679H188.715Z" fill="white"/>
<path id="Vector_9" d="M114.205 14.2839C114.833 14.2159 115.728 14.2263 116.141 14.3101C116.152 14.3834 116.173 14.4723 116.173 14.5613C116.178 14.7079 116.173 14.8544 116.173 15.001C116.173 23.9877 116.173 32.9744 116.173 41.9612C116.173 42.181 116.173 42.4008 116.173 42.5892C116.115 42.6363 116.089 42.6782 116.057 42.6835C115.455 42.7358 114.848 42.6991 114.225 42.7044C114.199 42.5892 114.168 42.5055 114.163 42.4218C114.152 42.2752 114.163 42.1286 114.163 41.9821C114.163 32.9744 114.163 23.972 114.163 14.9643C114.163 14.7497 114.136 14.5247 114.205 14.2839Z" fill="white"/>
<path id="Vector_10" d="M200.947 42.6524C200.481 42.7257 199.513 42.7257 199.031 42.6524C199.016 42.5791 198.989 42.4954 198.984 42.4064C198.974 42.2598 198.984 42.1133 198.984 41.9667C198.984 35.6493 198.984 29.3319 198.984 23.0145C198.984 22.7947 198.984 22.5801 198.989 22.3655C199.063 22.3289 199.11 22.287 199.162 22.287C199.712 22.2818 200.261 22.287 200.816 22.287C200.847 22.287 200.884 22.3132 200.947 22.3341C200.963 22.4021 200.989 22.4859 200.994 22.5749C201.004 22.7005 200.994 22.8313 200.994 22.9622C200.994 29.3162 200.994 35.6703 200.994 42.0243C200.994 42.2232 201.025 42.4273 200.947 42.6576V42.6524Z" fill="white"/>
<path id="Vector_11" d="M78.1631 56.6638C78.3724 55.9991 78.5713 55.3553 78.7807 54.7168C78.8435 54.5284 78.9168 54.3399 78.9953 54.1515C79.0476 54.0207 79.1523 53.9526 79.2989 53.9526C79.6443 53.9526 79.995 53.9526 80.3614 53.9526C80.3875 54.0626 80.4242 54.1463 80.4242 54.23C80.4346 54.4865 80.3875 54.7534 80.4399 54.9994C80.5759 55.638 80.5184 56.2765 80.5445 56.9151C80.5445 57.004 80.555 57.0983 80.5707 57.1872C80.5916 57.3128 80.6335 57.4332 80.644 57.5588C80.6545 57.7577 80.644 57.9619 80.644 58.1817C80.5445 58.2079 80.4608 58.2445 80.3771 58.2445C80.1572 58.2497 79.9426 58.2445 79.7437 58.2393C79.5658 58.0561 79.5449 57.8624 79.5449 57.6531C79.5449 56.9726 79.5449 56.2922 79.5344 55.617C79.5344 55.4914 79.5344 55.3658 79.5082 55.235C79.3355 55.5961 79.2203 55.9677 79.1052 56.3393C78.9429 56.8627 78.7755 57.3809 78.608 57.9043C78.5923 57.9566 78.5661 58.009 78.5399 58.0561C78.4824 58.1607 78.4039 58.234 78.2835 58.234C78.1003 58.234 77.9223 58.234 77.7287 58.234C77.446 57.7734 77.3989 57.25 77.2367 56.7737C77.0797 56.3132 76.9802 55.8264 76.8284 55.2664C76.8075 55.4286 76.7918 55.5071 76.7866 55.5856C76.7866 55.8421 76.7866 56.0986 76.7813 56.355C76.7813 56.4492 76.7866 56.5382 76.7813 56.6324C76.7499 56.8837 76.708 57.1349 76.6871 57.3914C76.6662 57.6269 76.6766 57.8676 76.6662 58.1084C76.6662 58.1398 76.6348 58.1712 76.6034 58.234C76.3364 58.2811 76.0486 58.2707 75.7502 58.234C75.6298 57.9828 75.6508 57.7106 75.7136 57.4803C75.7869 57.2082 75.7764 56.936 75.7921 56.6638C75.8078 56.2975 75.7921 55.9415 75.8758 55.5752C75.9491 55.2611 75.902 54.9157 75.9072 54.5859C75.9142 54.1672 76.1341 53.9579 76.5667 53.9579C76.7499 53.9579 76.9331 53.9579 77.1163 53.9579C77.3257 53.9631 77.3885 54.0311 77.4513 54.2457C77.6659 54.9994 77.8857 55.7531 78.1055 56.5016C78.1212 56.5539 78.1422 56.601 78.1683 56.6691L78.1631 56.6638Z" fill="white"/>
<path id="Vector_12" d="M154.071 53.9788C154.123 54.4027 154.186 54.7586 154.207 55.125C154.233 55.4914 154.217 55.8578 154.222 56.2241C154.222 56.3131 154.217 56.4126 154.238 56.4963C154.39 57.0354 154.317 57.585 154.306 58.1345C154.306 58.1502 154.285 58.1659 154.249 58.2183C153.992 58.2759 153.704 58.2497 153.39 58.2287C153.369 58.1241 153.333 58.0246 153.327 57.9199C153.312 57.6111 153.348 57.2971 153.239 56.9935C153.197 56.8784 153.223 56.7371 153.223 56.6115C153.223 56.1927 153.218 55.7688 153.212 55.3344C153.076 55.371 153.102 55.4757 153.081 55.5437C152.898 56.0985 152.678 56.6376 152.548 57.2134C152.49 57.4594 152.349 57.6792 152.307 57.9356C152.281 58.0979 152.134 58.213 151.946 58.2287C151.836 58.234 151.726 58.2287 151.616 58.2287C151.496 58.2235 151.407 58.1555 151.36 58.0508C151.302 57.9147 151.255 57.7786 151.213 57.6373C151.045 57.0773 150.878 56.5225 150.716 55.9624C150.69 55.8735 150.7 55.7792 150.679 55.6903C150.648 55.5699 150.601 55.4547 150.538 55.2716C150.454 55.4443 150.48 55.5647 150.475 55.6746C150.475 55.7845 150.475 55.8944 150.475 56.0043C150.475 56.1352 150.475 56.2608 150.475 56.3916C150.475 56.5225 150.475 56.6481 150.475 56.7789C150.475 56.8889 150.475 56.9988 150.475 57.1087C150.475 57.2343 150.475 57.3651 150.454 57.4908C150.438 57.6007 150.396 57.7001 150.381 57.81C150.36 57.9304 150.36 58.056 150.349 58.2078C150.035 58.2654 149.753 58.2549 149.486 58.2235C149.36 58.1241 149.36 58.0037 149.402 57.9042C149.475 57.7106 149.481 57.5117 149.486 57.3128C149.501 56.8574 149.46 56.4021 149.58 55.9467C149.638 55.7217 149.611 55.4704 149.596 55.2349C149.569 54.811 149.679 54.4079 149.732 54.0259C149.857 53.916 149.973 53.9421 150.077 53.9421C150.355 53.9421 150.627 53.9421 150.904 53.9526C151.019 53.9578 151.098 54.0468 151.134 54.1567C151.276 54.5911 151.433 55.0203 151.564 55.46C151.674 55.8421 151.752 56.2398 151.841 56.6324C152.045 56.4806 152.061 56.2398 152.103 56.0462C152.249 55.4024 152.516 54.8005 152.694 54.1672C152.726 54.052 152.799 53.9683 152.919 53.9526C153.066 53.9369 153.212 53.9369 153.359 53.9421C153.594 53.9421 153.83 53.9212 154.086 53.9735L154.071 53.9788Z" fill="white"/>
<path id="Vector_13" d="M125.389 56.653C125.441 56.4593 125.452 56.2761 125.389 56.1139C125.31 55.8993 125.321 55.6794 125.321 55.4648C125.321 55.1351 125.321 54.8054 125.321 54.4756C125.321 54.3814 125.321 54.2924 125.331 54.1982C125.347 54.0621 125.446 53.9627 125.588 53.9575C125.808 53.947 126.022 53.9313 126.263 53.9784C126.284 54.0517 126.315 54.1197 126.315 54.1825C126.315 55.4491 126.315 56.7158 126.315 57.9824C126.315 58.0504 126.294 58.1185 126.279 58.2074C126.195 58.2231 126.127 58.2441 126.054 58.2441C125.781 58.2388 125.504 58.2807 125.206 58.2074C124.651 57.3072 124.133 56.3703 123.557 55.334C123.557 55.9097 123.557 56.3703 123.557 56.8257C123.557 57.281 123.573 57.7364 123.541 58.1656C123.468 58.2074 123.437 58.2336 123.405 58.2388C123.149 58.265 122.897 58.2545 122.625 58.2493C122.599 58.1603 122.562 58.0923 122.562 58.0243C122.562 56.7943 122.562 55.5643 122.562 54.3343C122.562 54.2977 122.562 54.261 122.562 54.2244C122.578 54.0831 122.667 53.9679 122.798 53.9627C123.075 53.9522 123.348 53.9418 123.625 53.9627C123.719 53.9679 123.829 54.0517 123.892 54.1302C124.023 54.3029 124.138 54.4966 124.248 54.685C124.625 55.3288 124.996 55.9778 125.389 56.653Z" fill="white"/>
<path id="Vector_14" d="M169.266 53.9634H170.365C170.941 54.8165 171.443 55.722 171.972 56.7635C171.972 56.3396 171.972 56.0517 171.972 55.7586C171.972 55.4655 171.972 55.1724 171.972 54.8793C171.972 54.5914 171.946 54.2983 172.003 53.9895C172.254 53.9163 172.49 53.9424 172.726 53.9581C172.856 53.9634 172.951 54.0785 172.966 54.2146C172.966 54.2512 172.971 54.2879 172.971 54.3245C172.971 55.5545 172.971 56.7845 172.971 58.0092C172.971 58.0616 172.951 58.1139 172.935 58.1976C172.856 58.2133 172.773 58.2343 172.684 58.2447C172.595 58.2552 172.5 58.2447 172.406 58.2447C171.694 58.2395 171.815 58.3076 171.485 57.7004C171.276 57.3131 171.035 56.9467 170.82 56.5646C170.653 56.2611 170.501 55.947 170.339 55.6382C170.297 55.5597 170.276 55.4655 170.156 55.4341C170.14 55.4812 170.114 55.5283 170.114 55.5702C170.114 55.8633 170.067 56.1721 170.135 56.4495C170.224 56.8159 170.197 57.177 170.208 57.5382C170.208 57.7528 170.229 57.9726 170.177 58.2081C169.868 58.2709 169.585 58.2552 169.276 58.2238C169.255 58.1505 169.219 58.0825 169.219 58.0197C169.219 56.7374 169.219 55.4498 169.219 54.1675C169.219 54.1151 169.245 54.0628 169.271 53.9634H169.266Z" fill="white"/>
<path id="Vector_15" d="M132.492 58.1763V54.1514C132.638 53.9944 132.806 53.942 132.994 53.942C133.455 53.942 133.91 53.9263 134.371 53.942C134.957 53.963 135.475 54.1985 135.909 54.5753C136.082 54.7219 136.208 54.9522 136.291 55.1668C136.579 55.8891 136.501 56.6061 136.108 57.2708C135.941 57.5535 135.7 57.7838 135.396 57.9408C135.067 58.1083 134.737 58.2444 134.355 58.2496C134.156 58.2496 133.962 58.3281 133.763 58.3438C133.345 58.37 132.926 58.3438 132.486 58.1711L132.492 58.1763ZM133.507 57.4383C133.795 57.5011 134.03 57.475 134.266 57.4645C134.355 57.4645 134.444 57.4226 134.522 57.386C134.784 57.2761 134.978 57.072 135.119 56.8364C135.271 56.5852 135.292 56.2869 135.339 55.999C135.344 55.9624 135.339 55.9257 135.323 55.8891C135.245 55.685 135.171 55.4808 135.082 55.2767C134.993 55.0569 134.8 54.9156 134.596 54.8632C134.355 54.8004 134.114 54.68 133.847 54.7219C133.795 54.7324 133.727 54.7114 133.685 54.7428C133.612 54.7899 133.528 54.8528 133.502 54.926C133.47 55.0255 133.481 55.1406 133.481 55.2505C133.481 55.8577 133.481 56.4596 133.481 57.0667C133.481 57.1766 133.491 57.2813 133.502 57.4331L133.507 57.4383Z" fill="white"/>
<path id="Vector_16" d="M191.839 56.0773C191.839 56.3861 191.849 56.6949 191.724 56.9932C191.54 57.4224 191.315 57.8097 190.886 58.0296C190.337 58.307 189.771 58.4483 189.148 58.2913C188.84 58.2128 188.568 58.1029 188.311 57.9197C188.175 57.8202 188.06 57.7155 187.971 57.5742C187.536 56.8886 187.39 56.1663 187.652 55.3864C187.709 55.2137 187.772 55.041 187.861 54.8892C188.243 54.2611 188.819 53.9628 189.541 53.9418C189.886 53.9314 190.227 53.9209 190.567 54.0465C191.284 54.3135 191.818 55.0305 191.839 55.7999C191.839 55.8889 191.839 55.9831 191.839 56.0721V56.0773ZM190.724 56.1453C190.724 56.0616 190.74 55.9517 190.724 55.8418C190.651 55.3445 190.447 54.9363 189.934 54.7583C189.756 54.6955 189.578 54.6955 189.4 54.774C189.117 54.8997 188.923 55.1038 188.798 55.3812C188.557 55.8993 188.63 56.4123 188.814 56.92C188.897 57.1555 189.065 57.323 189.3 57.412C189.567 57.5114 189.839 57.4905 190.112 57.4329C190.174 57.4172 190.237 57.3596 190.289 57.3073C190.604 56.9932 190.766 56.6216 190.729 56.1453H190.724Z" fill="white"/>
<path id="Vector_17" d="M96.8898 56.6374C96.8322 56.9201 96.8689 57.1765 96.8584 57.4278C96.8479 57.679 96.8846 57.9355 96.8322 58.1658C96.7747 58.2024 96.7433 58.2286 96.7119 58.2338C96.4188 58.2547 96.1309 58.2652 95.8169 58.2233C95.7959 58.1501 95.7593 58.0872 95.7593 58.0192C95.7593 56.7369 95.7593 55.4493 95.7593 54.167C95.8901 54.0048 96.0576 53.9472 96.246 53.9472C96.7223 53.9472 97.2039 53.921 97.6749 53.9472C98.0832 53.9733 98.4548 54.1199 98.7426 54.4339C99.0619 54.7846 99.1247 55.3394 98.8526 55.7372C98.7322 55.9152 98.5647 56.0617 98.4024 56.2449C98.5752 56.5275 98.7793 56.8049 98.863 57.1504C98.9415 57.4853 99.0514 57.8151 99.1561 58.171C99.0829 58.1972 99.02 58.2338 98.9572 58.239C98.6851 58.239 98.4077 58.2652 98.1564 58.2233C97.9471 58.0087 97.9366 57.7418 97.8476 57.5063C97.8058 57.3859 97.7691 57.2655 97.7482 57.1399C97.7168 56.9201 97.5702 56.784 97.408 56.6636C97.2667 56.5589 97.0992 56.5851 96.8846 56.6322L96.8898 56.6374ZM96.8846 55.8105C97.1306 55.8105 97.3138 55.8262 97.4917 55.8105C97.7587 55.7791 97.9471 55.5488 97.9575 55.2818C97.968 55.0725 97.7168 54.7689 97.4917 54.7375C97.2981 54.7113 97.0939 54.6956 96.8846 54.7741C96.8532 55.1144 96.8532 55.4336 96.8846 55.8105Z" fill="white"/>
<path id="Vector_18" d="M116.695 57.4903V58.1759C116.622 58.2021 116.559 58.244 116.491 58.244C115.643 58.244 114.801 58.244 113.953 58.244C113.9 58.244 113.848 58.2178 113.77 58.1969C113.759 58.1131 113.738 58.0294 113.738 57.9404C113.738 56.7628 113.738 55.5904 113.738 54.4127C113.738 54.3237 113.728 54.2191 113.764 54.1406C113.801 54.0673 113.88 54.0097 113.953 53.9626C113.995 53.9364 114.063 53.9469 114.115 53.9469C114.869 53.9469 115.622 53.9469 116.376 53.9469C116.428 53.9469 116.481 53.9678 116.554 53.9888C116.638 54.2348 116.596 54.486 116.58 54.7634C116.491 54.7843 116.408 54.821 116.324 54.821C115.957 54.8262 115.591 54.821 115.219 54.821C115.115 54.821 115.005 54.8367 114.879 54.8419C114.816 55.0774 114.832 55.292 114.864 55.5328C114.947 55.5537 115.036 55.5851 115.12 55.5851C115.434 55.5904 115.743 55.5851 116.057 55.5851C116.428 55.5904 116.491 55.6584 116.491 56.0457C116.491 56.1556 116.481 56.2655 116.476 56.4016C116.387 56.4226 116.303 56.4592 116.219 56.4644C115.889 56.4697 115.56 56.4644 115.225 56.4644C115.12 56.4644 115.01 56.4801 114.884 56.4854C114.811 56.7366 114.837 56.9721 114.848 57.2077C114.853 57.3437 114.958 57.4327 115.11 57.438C115.46 57.4432 115.806 57.438 116.156 57.4432C116.319 57.4432 116.481 57.4589 116.69 57.4694L116.695 57.4903Z" fill="white"/>
<path id="Vector_19" d="M68.077 55.5749C68.6004 55.6482 69.0819 55.5644 69.5635 55.6325C69.6629 55.8994 69.6158 56.1506 69.6001 56.4228C69.5111 56.4438 69.4274 56.4804 69.3436 56.4804C69.0505 56.4856 68.7574 56.4804 68.4643 56.4804C68.3544 56.4804 68.2497 56.4909 68.1189 56.5013C68.0352 56.7997 68.0718 57.0875 68.0875 57.4016C68.1922 57.4225 68.2968 57.4539 68.4015 57.4591C68.7522 57.4644 69.0976 57.4591 69.4483 57.4591C69.5582 57.4591 69.6629 57.4748 69.7833 57.4801C69.8723 57.7261 69.8513 57.9511 69.8199 58.1448C69.7728 58.1919 69.7624 58.2128 69.7467 58.2181C69.731 58.2285 69.71 58.2285 69.6943 58.2285C68.8883 58.2285 68.077 58.239 67.271 58.239C67.1977 58.239 67.1244 58.2285 67.0355 58.2181C67.0145 58.15 66.9727 58.082 66.9727 58.0192C66.9727 56.7369 66.9727 55.4493 66.9727 54.167C66.9727 54.1146 66.9936 54.0623 67.0145 53.9785C67.2919 53.9 67.585 53.9471 67.8729 53.9419C68.166 53.9367 68.4591 53.9419 68.7522 53.9419H69.6524C69.6839 54.0414 69.7257 54.1199 69.731 54.2036C69.7362 54.3816 69.731 54.5648 69.7205 54.7689C69.6106 54.7898 69.5268 54.816 69.4431 54.8212C69.1134 54.8265 68.7836 54.8212 68.4539 54.8212C68.3492 54.8212 68.2393 54.8369 68.1555 54.8422C68.1189 54.905 68.0875 54.9364 68.0875 54.9625C68.0875 55.1457 68.0875 55.3237 68.0875 55.5592L68.077 55.5749Z" fill="white"/>
<path id="Vector_20" d="M87.6786 58.2336H86.6736C86.6475 58.1551 86.6108 58.0923 86.6108 58.0242C86.6108 56.7576 86.6108 55.491 86.6108 54.2244C86.6108 54.193 86.6318 54.1563 86.6475 54.1144C86.7679 53.9993 86.9144 53.947 87.0871 53.9417C87.5268 53.9417 87.9717 53.9103 88.4061 53.947C88.7986 53.9836 89.1859 54.0673 89.5157 54.3552C90.0234 54.7949 90.1385 55.9254 89.3063 56.4436C89.0917 56.5796 88.8667 56.6948 88.5945 56.7105C88.3223 56.7262 88.0606 56.7995 87.7571 56.8466C87.7414 56.9146 87.7152 56.9984 87.71 57.0873C87.7047 57.3438 87.71 57.6003 87.71 57.8567C87.71 57.9614 87.6943 58.0713 87.6838 58.2283L87.6786 58.2336ZM87.7414 55.8992C88.0711 55.9568 88.3695 55.9673 88.6469 55.7789C88.7044 55.737 88.7725 55.6742 88.7777 55.6114C88.8353 55.2555 88.8614 54.999 88.4218 54.8001C88.1915 54.6954 87.9717 54.7007 87.7152 54.7792C87.6943 55.088 87.7047 55.3758 87.7047 55.6689C87.7047 55.737 87.7257 55.8103 87.7414 55.8992Z" fill="white"/>
<path id="Vector_21" d="M105.07 53.9634H107.703C107.829 54.2303 107.776 54.4972 107.75 54.7851C107.462 54.8741 107.19 54.8218 106.918 54.8322C106.646 54.8427 106.369 54.8322 106.091 54.8322C105.965 55.0835 106.013 55.3085 106.039 55.565C106.306 55.6383 106.562 55.5911 106.813 55.6068C107.07 55.6173 107.326 55.5807 107.598 55.6383C107.703 55.9052 107.667 56.1669 107.63 56.4495C107.358 56.5176 107.101 56.4757 106.845 56.4862C106.588 56.4966 106.332 56.46 106.06 56.5176C105.96 56.7688 106.002 57.0253 106.028 57.2712C106.039 57.3393 106.138 57.4178 106.211 57.4492C106.29 57.4806 106.395 57.4649 106.484 57.4649C106.813 57.4649 107.143 57.4649 107.478 57.4649C107.588 57.4649 107.693 57.4806 107.813 57.4858C107.913 57.7318 107.881 57.9569 107.85 58.1663C107.787 58.1977 107.756 58.2291 107.724 58.2343C107.143 58.2709 105.468 58.2552 105.06 58.2134C105.044 58.1558 105.002 58.093 105.002 58.0249C105.002 56.7374 105.002 55.4551 105.002 54.1675C105.002 54.1152 105.029 54.0628 105.055 53.9634H105.07Z" fill="white"/>
<path id="Vector_22" d="M161.415 54.8946V55.4965C161.499 55.6064 161.593 55.6012 161.682 55.6012C162.106 55.6012 162.524 55.6012 162.969 55.6012C163.001 55.7006 163.037 55.7844 163.043 55.8681C163.048 56.0461 163.037 56.2293 163.032 56.4334C162.504 56.5433 161.985 56.4334 161.462 56.5067C161.352 56.7684 161.383 57.0405 161.431 57.3022C161.441 57.3598 161.525 57.4279 161.582 57.4383C161.708 57.4645 161.839 57.4593 161.964 57.4593C162.367 57.4593 162.77 57.4593 163.158 57.4593C163.231 57.6616 163.249 57.9024 163.21 58.1816C163.168 58.1973 163.121 58.2339 163.069 58.2391C162.169 58.2862 160.808 58.2601 160.415 58.1816C160.405 58.124 160.384 58.0507 160.384 57.9827C160.347 57.051 160.373 54.4183 160.426 53.9996C160.483 53.9839 160.551 53.9473 160.619 53.9473C161.389 53.9473 162.163 53.9473 162.933 53.9473C162.985 53.9473 163.037 53.9734 163.079 53.9839C163.105 54.0258 163.137 54.0572 163.137 54.0886C163.158 54.3084 163.168 54.523 163.126 54.769C163.043 54.7847 162.959 54.8213 162.87 54.8213C162.467 54.8266 162.064 54.8213 161.656 54.8266C161.572 54.8266 161.488 54.8684 161.41 54.8894L161.415 54.8946Z" fill="white"/>
<path id="Vector_23" d="M200.517 54.1879C200.434 54.4444 200.355 54.6799 200.277 54.9207C200.052 54.8684 199.858 54.8317 199.664 54.7689C199.502 54.7166 199.34 54.7113 199.178 54.748C199.073 54.7741 198.911 54.8945 198.738 55.0568C198.733 55.3132 198.89 55.4493 199.104 55.5331C199.34 55.6273 199.581 55.7215 199.816 55.8105C199.868 55.8314 199.921 55.8419 199.968 55.868C200.58 56.1978 200.795 56.6479 200.643 57.3283C200.575 57.6267 200.387 57.8517 200.125 58.0087C199.774 58.2181 199.387 58.3175 198.984 58.3489C198.502 58.3856 198.047 58.2495 197.586 58.0715C197.634 57.8674 197.67 57.6738 197.723 57.4853C197.738 57.4173 197.791 57.3597 197.838 57.2707C197.979 57.3074 198.115 57.344 198.251 57.3754C198.392 57.4068 198.534 57.4487 198.675 57.4644C198.822 57.4801 198.968 57.4644 199.115 57.4644C199.267 57.4644 199.397 57.3964 199.528 57.2707C199.533 57.2236 199.549 57.1504 199.554 57.0823C199.565 56.8991 199.497 56.7631 199.319 56.6898C199.151 56.6217 198.989 56.5328 198.816 56.4752C198.429 56.3391 198.099 56.1193 197.827 55.8052C197.728 55.6901 197.665 55.5645 197.67 55.4075C197.67 55.2975 197.67 55.1876 197.67 55.0777C197.654 54.6642 197.874 54.3764 198.204 54.1775C198.45 54.0257 198.733 53.9262 199.036 53.9315C199.293 53.9315 199.549 53.9367 199.806 53.9315C200.052 53.9262 200.277 53.9838 200.517 54.1775V54.1879Z" fill="white"/>
<path id="Vector_24" d="M180.9 58.2444C180.618 58.2444 180.403 58.2496 180.183 58.2444C180.115 58.2444 180.042 58.2234 179.953 58.2077C179.88 57.9251 179.922 57.6529 179.916 57.386C179.911 57.1138 179.916 56.8364 179.916 56.5643V54.8894C179.796 54.8684 179.691 54.837 179.592 54.8266C179.32 54.8109 179.048 54.8527 178.76 54.7952C178.66 54.5387 178.728 54.2822 178.702 54.0205C178.791 53.9891 178.854 53.9473 178.922 53.9473C179.932 53.9473 180.937 53.9473 181.947 53.9473C181.984 53.9473 182.015 53.9682 182.078 53.9839C182.183 54.2299 182.136 54.4916 182.109 54.7795C181.733 54.8789 181.366 54.7795 180.979 54.8527C180.963 54.9522 180.927 55.0569 180.927 55.1563C180.927 55.978 180.927 56.805 180.927 57.6267C180.927 57.8047 180.916 57.9879 180.906 58.2339L180.9 58.2444Z" fill="white"/>
<path id="Vector_25" d="M199.037 14.2844C199.602 14.2163 200.534 14.2268 200.921 14.2948C200.942 14.3263 200.973 14.3524 200.973 14.3838C201.01 14.8392 200.994 16.8595 200.957 17.2363C200.931 17.2573 200.905 17.2991 200.874 17.3044C200.523 17.3463 199.461 17.341 199.042 17.2887C199.021 17.2363 198.979 17.1683 198.979 17.1003C198.979 16.2209 198.979 15.3416 198.979 14.4623C198.979 14.41 199.005 14.3577 199.026 14.2791L199.037 14.2844Z" fill="white"/>
<path id="Vector_26" d="M143.368 58.2236C143.242 58.2341 143.132 58.2498 143.027 58.2498C142.808 58.2498 142.588 58.2759 142.352 58.2184C142.337 58.1451 142.305 58.077 142.305 58.009C142.305 56.7214 142.305 55.4391 142.305 54.1516C142.305 54.1149 142.321 54.0783 142.331 54.0155C142.399 53.9945 142.483 53.9527 142.567 53.9527C142.818 53.9527 143.08 53.9213 143.352 53.9841C143.368 54.0574 143.399 54.1254 143.399 54.1934C143.399 55.481 143.399 56.7633 143.399 58.0509C143.399 58.0875 143.383 58.1242 143.362 58.2288L143.368 58.2236Z" fill="white"/>
</g>
</svg>
