<svg width="32" height="32" viewBox="0 0 32 32" fill="none" xmlns="http://www.w3.org/2000/svg">
<g id="Vector">
<path d="M15.9771 31.997C12.6978 31.997 9.41799 32.0007 6.13873 31.9959C3.54342 31.9922 1.30864 30.4419 0.385571 28.0149C0.13903 27.3671 0.0043626 26.6944 0.0038324 26.0004C0.00171162 19.3322 -0.00464867 12.664 0.00595526 5.99575C0.010727 3.17055 2.13257 0.640567 4.89913 0.130853C5.32859 0.051741 5.77131 0.00661009 6.20819 0.00607914C12.7365 -0.00188515 19.2643 -0.000292297 25.7926 0.00130056C28.7246 0.00183151 31.1136 1.84848 31.822 4.69173C31.9455 5.18764 31.9906 5.71488 31.9916 6.22831C32.0033 11.583 31.9991 16.9376 31.9991 22.2923C31.9991 23.4747 32.0012 24.6566 31.9991 25.839C31.9927 28.6356 30.2181 31.0137 27.5284 31.766C26.9717 31.9216 26.3731 31.9837 25.7931 31.9875C22.5213 32.0076 19.2494 31.9975 15.9776 31.997H15.9771ZM15.9946 2.13732C12.692 2.13732 9.3899 2.13095 6.0873 2.13945C3.92463 2.14529 2.14317 3.9192 2.14105 6.07752C2.13416 12.6911 2.13416 19.3051 2.14105 25.9187C2.14317 28.0669 3.91774 29.853 6.06397 29.8562C12.692 29.8652 19.3199 29.8658 25.9479 29.8562C28.082 29.853 29.856 28.0706 29.8587 25.9309C29.8677 19.3094 29.865 12.6879 29.8544 6.06637C29.8539 5.69417 29.7855 5.30923 29.6763 4.9519C29.1572 3.25179 27.6361 2.13944 25.8557 2.13785C22.5685 2.13467 19.2818 2.13679 15.9946 2.13732Z" fill="#0DCB9D"/>
<path d="M7.46952 9.01157C7.46952 9.15281 7.46952 9.23616 7.46952 9.31899C7.46952 10.5322 7.47218 11.7454 7.46794 12.9587C7.46582 13.5273 7.08195 13.9515 6.51517 14.0291C6.00883 14.0986 5.50727 13.7524 5.3673 13.2284C5.33973 13.1259 5.33443 13.0149 5.33443 12.9077C5.33284 10.6591 5.33231 8.41053 5.33337 6.16195C5.33337 5.62728 5.62921 5.33366 6.1663 5.33313C8.41168 5.33207 10.6576 5.33154 12.903 5.33313C13.5535 5.33313 14.0339 5.78444 14.0397 6.39238C14.0455 7.00616 13.5583 7.46756 12.8971 7.46862C11.701 7.47022 10.5049 7.46915 9.30878 7.46915C9.2266 7.46915 9.14494 7.46915 9.10783 7.46915C14.2295 12.6183 19.3613 17.7781 24.5312 22.9756C24.5312 22.8572 24.5312 22.7765 24.5312 22.6958C24.5312 21.4826 24.5297 20.2694 24.5323 19.0561C24.5339 18.4684 24.9114 18.0425 25.4882 17.9666C25.9988 17.8992 26.4914 18.2416 26.6329 18.7715C26.6605 18.874 26.6658 18.985 26.6663 19.0922C26.6679 21.3334 26.6685 23.574 26.6674 25.8151C26.6674 26.3689 26.3769 26.6641 25.8308 26.6641C23.5695 26.6652 21.3087 26.6663 19.0474 26.6631C18.4801 26.6625 18.04 26.2691 17.9685 25.7169C17.9006 25.1892 18.2468 24.6906 18.7829 24.5568C18.8931 24.5292 19.0119 24.5292 19.1269 24.5286C20.3151 24.5265 21.5038 24.5276 22.692 24.5276H22.9025C17.776 19.3736 12.6432 14.2138 7.46847 9.01104L7.46952 9.01157Z" fill="#0DCB9D"/>
</g>
</svg>
