<svg width="37" height="30" viewBox="0 0 37 30" fill="none" xmlns="http://www.w3.org/2000/svg">
<path id="Vector" d="M34.6903 27.9845C34.6903 28.2924 34.6928 28.5897 34.6903 28.8871C34.6843 29.5252 34.231 29.9939 33.6191 29.9984C32.9977 30.0029 32.5298 29.5272 32.5228 28.8816C32.5198 28.5927 32.5223 28.3038 32.5223 27.995H4.47637C4.47637 28.3123 4.48139 28.6171 4.47537 28.922C4.46433 29.4734 4.06475 29.9262 3.54019 29.9909C2.97647 30.0607 2.4504 29.7234 2.34097 29.1675C2.28073 28.8627 2.31537 28.5394 2.30834 28.2246C2.30683 28.1509 2.30834 28.0772 2.30834 27.9905C2.11457 27.9477 1.93386 27.9193 1.76018 27.868C0.685951 27.5482 0.00125494 26.6391 0.000752964 25.5338C-0.000250988 22.8186 -0.000250988 20.1034 0.000752964 17.3881C0.000752964 16.374 0.600615 15.4913 1.55788 15.1372C1.7647 15.0605 1.81941 14.9598 1.80737 14.7606C1.75365 13.866 1.91378 13.0162 2.45843 12.2835C2.69386 11.9667 2.98902 11.6887 3.28569 11.4247C3.42473 11.3007 3.48648 11.1921 3.48597 11.0088C3.48045 8.60093 3.48095 6.19255 3.48296 3.78467C3.48397 2.49655 3.97791 1.44454 5.03608 0.679932C5.69266 0.20523 6.43709 -0.00049123 7.24879 0.00249745C8.98061 0.00847481 10.7124 0.00399179 12.4442 0.00399179C18.1748 0.00399179 23.9059 0.0079767 29.6364 6.88568e-06C30.6032 -0.00148745 31.4706 0.240098 32.2096 0.869713C33.1036 1.63133 33.5142 2.61361 33.5157 3.77172C33.5182 6.17163 33.5192 8.57104 33.5117 10.971C33.5112 11.1836 33.5764 11.3137 33.7461 11.4467C34.7149 12.2033 35.2124 13.202 35.1843 14.4264C35.1747 14.8373 35.2515 15.0585 35.6762 15.2562C36.5456 15.6612 36.9929 16.4118 36.9954 17.3782C37.0029 20.1019 36.9994 22.8256 36.9974 25.5487C36.9969 26.7467 36.141 27.7414 34.9559 27.9317C34.8745 27.9447 34.7937 27.9641 34.6903 27.985V27.9845ZM18.4735 25.8162C23.7688 25.8162 29.0647 25.8162 34.36 25.8162C34.7671 25.8162 34.8304 25.7545 34.8304 25.3605C34.8304 22.7698 34.8304 20.1791 34.8304 17.5884C34.8304 17.1769 34.7817 17.1261 34.3731 17.1261C23.7904 17.1261 13.2077 17.1261 2.62508 17.1261C2.21547 17.1261 2.16728 17.176 2.16728 17.5874C2.16728 20.0286 2.16728 22.4699 2.16728 24.9112C2.16728 25.1104 2.16829 25.3096 2.16829 25.5089C2.16829 25.7032 2.27772 25.7963 2.46144 25.8127C2.5528 25.8207 2.64516 25.8162 2.73753 25.8162C7.98268 25.8162 13.2283 25.8162 18.4735 25.8162ZM18.5071 2.15933C14.784 2.15933 11.0613 2.15883 7.33814 2.16082C7.15542 2.16082 6.96567 2.15933 6.79099 2.20466C6.08471 2.38796 5.66104 2.95581 5.65752 3.71842C5.652 4.88899 5.65552 6.06005 5.65552 7.23112C5.65552 8.29409 5.65903 9.35707 5.6525 10.4195C5.6515 10.6088 5.70471 10.6905 5.90851 10.682C6.22576 10.6686 6.54452 10.6701 6.86176 10.682C7.03896 10.6885 7.09368 10.6243 7.09117 10.4524C7.08263 9.92093 7.08464 9.38944 7.08916 8.85796C7.10121 7.42538 8.13076 6.39379 9.57645 6.38682C11.4754 6.37785 13.3749 6.37885 15.2739 6.38682C16.7306 6.39279 17.7597 7.42688 17.7687 8.87539C17.7717 9.39841 17.7737 9.92193 17.7667 10.4449C17.7647 10.6083 17.8033 10.6885 17.9886 10.6825C18.3314 10.6706 18.6748 10.6726 19.0176 10.6825C19.1873 10.6875 19.2325 10.6183 19.2305 10.4619C19.2239 9.94733 19.2385 9.43178 19.2264 8.91723C19.1913 7.4473 20.3599 6.35045 21.7825 6.37685C23.6393 6.41172 25.4971 6.38433 27.3544 6.38731C27.5542 6.38731 27.76 6.38731 27.9533 6.43015C29.1405 6.69415 29.8954 7.63011 29.9085 8.84301C29.914 9.36603 29.9175 9.88955 29.906 10.4121C29.9015 10.6123 29.9532 10.6965 30.17 10.684C30.4617 10.6671 30.7563 10.6651 31.048 10.684C31.2844 10.6995 31.3477 10.6133 31.3467 10.3872C31.3396 8.17853 31.3447 5.9694 31.3381 3.76076C31.3376 3.55654 31.31 3.34285 31.2448 3.15008C31.0309 2.51797 30.4818 2.16132 29.7509 2.16132C26.0026 2.16032 22.2549 2.16082 18.5066 2.16082L18.5071 2.15933ZM18.5001 14.9658H32.4545C33.0298 14.9658 33.0323 14.9658 33.0238 14.3845C33.0137 13.7235 32.7135 13.2264 32.1031 12.9689C31.8451 12.8598 31.5344 12.8359 31.2478 12.8359C22.7483 12.8294 14.2483 12.8304 5.74888 12.8309C5.63995 12.8309 5.53153 12.8324 5.4226 12.8374C4.89853 12.8633 4.50248 13.1108 4.21585 13.5372C4.00753 13.8471 3.96034 14.1957 3.97239 14.5609C3.98644 15.0007 3.91065 14.9653 4.37046 14.9653C9.0805 14.9658 13.7905 14.9653 18.5001 14.9653V14.9658ZM12.4457 8.53867C11.5091 8.53867 10.5724 8.53717 9.63619 8.53966C9.34253 8.54016 9.26372 8.61737 9.26121 8.90876C9.2572 9.38197 9.26121 9.85518 9.26021 10.3279C9.26021 10.565 9.38068 10.6776 9.61661 10.6776C11.49 10.6776 13.3629 10.6791 15.2362 10.6761C15.5023 10.6761 15.5962 10.5755 15.5987 10.31C15.6032 9.86166 15.6012 9.41335 15.5997 8.96555C15.5987 8.60342 15.5369 8.53966 15.1805 8.53916C14.2689 8.53817 13.3573 8.53916 12.4462 8.53916L12.4457 8.53867ZM24.5725 10.6781C25.4921 10.6781 26.4122 10.6796 27.3319 10.6771C27.6466 10.6761 27.7344 10.5884 27.7369 10.2771C27.74 9.82878 27.74 9.38048 27.7369 8.93267C27.7349 8.61089 27.6622 8.53966 27.3349 8.53966C25.4866 8.53867 23.6388 8.53867 21.7905 8.53966C21.4688 8.53966 21.3995 8.61288 21.398 8.94214C21.396 9.3735 21.3965 9.80537 21.398 10.2367C21.399 10.5969 21.4778 10.6776 21.8377 10.6781C22.7493 10.6796 23.6609 10.6781 24.572 10.6781H24.5725Z" fill="#0DCB9D"/>
</svg>
