<svg width="31" height="30" viewBox="0 0 31 30" fill="none" xmlns="http://www.w3.org/2000/svg">
<path id="Vector" d="M30.9984 15.1437C30.9938 15.0147 30.9949 14.8818 30.9959 14.7533C30.9964 14.6686 30.9974 14.5834 30.9964 14.4987V14.4918C30.9959 14.4248 30.9949 14.3485 30.973 14.2702C30.8147 13.7183 30.5215 13.2377 30.1016 12.8409C29.7886 12.545 29.4745 12.2397 29.1701 11.9443C29.0439 11.8217 28.9182 11.6996 28.7919 11.5775L26.1946 9.0649C23.3809 6.34307 20.5666 3.62076 17.7539 0.897949C17.0536 0.219954 16.3451 -0.0616816 15.5225 0.0111892C15.4416 0.0180824 15.3551 0.0151282 15.264 0.0111892C15.123 0.00577315 14.9774 -0.000135295 14.8303 0.0323612C14.3183 0.145114 13.8892 0.360772 13.5558 0.67392C12.9424 1.24999 12.3286 1.84428 11.7346 2.41888L11.4679 2.67688C9.9735 4.12199 8.47961 5.56759 6.98521 7.01319C4.96807 8.96446 2.95145 10.9162 0.933293 12.867C0.449751 13.3347 0.158098 13.8695 0.0425573 14.5017C-0.163584 15.6287 0.393762 16.8345 1.398 17.4332C1.95128 17.7631 2.56258 17.9094 3.26804 17.8813C3.27415 17.8813 3.2828 17.8808 3.29196 17.8803C3.29196 17.8911 3.29196 17.9025 3.29196 17.9128V21.5007V26.4997C3.29196 26.5101 3.29094 26.5278 3.29349 26.5485C3.30774 26.6534 3.31741 26.7636 3.32759 26.8695C3.34999 27.1137 3.3734 27.3663 3.44619 27.6095C3.86101 28.9995 5.20475 29.9793 6.71341 29.9921C7.38375 29.998 8.05816 30 8.73156 30C9.54951 30 10.3654 29.997 11.1656 29.9941L11.6873 29.9921C11.8359 29.9916 11.9988 29.9527 12.1459 29.8833C12.5475 29.6933 12.7597 29.3437 12.7602 28.8725C12.7602 28.2491 12.7612 27.6258 12.7623 27.0024C12.7648 25.3697 12.7668 23.6814 12.7551 22.0206C12.7526 21.6578 12.8997 21.3062 13.1588 21.0556C13.4128 20.8104 13.7599 20.6755 14.1376 20.6755C14.1416 20.6755 14.1457 20.6755 14.1498 20.6755C14.5437 20.6784 14.9438 20.6775 15.3306 20.677C15.8498 20.676 16.3868 20.675 16.9136 20.6829C17.1325 20.6863 17.3432 20.7277 17.5076 20.7991C18.0385 21.0305 18.296 21.4293 18.296 22.0172C18.296 23.6268 18.296 25.2363 18.296 26.8459V28.1871C18.296 28.2634 18.296 28.3397 18.2955 28.4165C18.2945 28.5958 18.2935 28.7814 18.2986 28.965C18.3138 29.5308 18.7852 29.9921 19.3486 29.9931L20.0968 29.9951C21.5185 29.999 22.9884 30.0025 24.4345 29.9867C25.2163 29.9783 25.9299 29.7041 26.5554 29.1723C27.3612 28.4869 27.7689 27.5982 27.7673 26.5303C27.7638 24.2678 27.7648 21.9675 27.7658 19.7424V17.9635C27.7663 17.932 27.7658 17.9039 27.7658 17.8793C27.7658 17.8793 27.7658 17.8788 27.7658 17.8783C27.7801 17.8783 27.7953 17.8793 27.8096 17.8798L27.8488 17.8813C28.6601 17.9069 29.3518 17.6976 29.9051 17.2575C30.6691 16.6494 31.0269 15.9576 30.9984 15.1442V15.1437ZM25.6087 26.5411C25.6087 27.0413 25.4178 27.4151 25.0234 27.6834C24.8055 27.8316 24.5571 27.9069 24.2853 27.9069C23.8293 27.9074 23.3732 27.9074 22.9172 27.9074C22.1099 27.9074 21.2757 27.9074 20.4547 27.9109C20.4547 27.9074 20.4547 27.9035 20.4547 27.8995C20.4562 27.1265 20.4557 26.3535 20.4557 25.5805C20.4557 24.4347 20.4552 23.2501 20.4598 22.0847C20.4628 21.3338 20.2841 20.7031 19.9136 20.1555C19.2326 19.1496 18.2685 18.6243 17.048 18.5928C16.4805 18.5785 15.972 18.5711 15.5006 18.5711C14.9189 18.5711 14.3941 18.5824 13.8866 18.6046C12.4289 18.6686 11.2302 19.5632 10.7589 20.9389C10.6469 21.2658 10.597 21.6213 10.5975 22.0911C10.5985 23.5701 10.5985 25.0492 10.5985 26.5283V27.8597C10.5985 27.8754 10.5985 27.8917 10.5985 27.9069C10.5828 27.9069 10.5665 27.9069 10.5507 27.9069H9.51032C8.62111 27.9074 7.73139 27.9079 6.84167 27.9069C6.13825 27.9059 5.64096 27.5293 5.47757 26.8734C5.45314 26.776 5.45314 26.6652 5.45365 26.5475V26.514C5.45212 25.2673 5.45212 24.0207 5.45263 22.774V20.1127C5.45263 19.0556 5.45263 17.9985 5.45263 16.9413C5.45263 16.2318 4.99607 15.7907 4.2621 15.7897C4.1491 15.7897 4.03662 15.7887 3.92362 15.7877C3.65029 15.7853 3.3678 15.7833 3.08887 15.7922C2.49844 15.8104 2.27856 15.4091 2.22461 15.2855C2.04391 14.8704 2.25871 14.5396 2.47045 14.3347L4.02287 12.8335C4.6698 12.2082 5.31673 11.5824 5.96366 10.9566L9.97605 7.07523C11.6002 5.50408 13.2239 3.93292 14.8481 2.36226C15.2879 1.93685 15.7623 1.927 16.1842 2.33518C20.6389 6.64342 24.6986 10.5706 28.5945 14.3421C28.8077 14.5484 28.9151 14.8 28.8963 15.0502C28.8795 15.2771 28.7573 15.4834 28.5527 15.6312C28.4051 15.738 28.2468 15.7897 28.0687 15.7897H28.0656C27.6869 15.7882 27.2869 15.7887 26.7697 15.7897C26.0638 15.7917 25.6077 16.2358 25.6077 16.9207V18.2949C25.6067 20.9975 25.6062 23.7917 25.6087 26.5401V26.5411Z" fill="#0DCB9D"/>
</svg>
